M48
;DRILL file {KiCad 4.0.4+e1-6308~48~ubuntu14.04.1-stable} date Wed Oct 26 00:23:17 2016
;FORMAT={-:-/ absolute / inch / decimal}
FMAT,2
INCH,TZ
T1C0.013
T2C0.040
T3C0.047
T4C0.067
T5C0.118
%
G90
G05
M72
T1
X5.5984Y-4.8031
X5.6693Y-5.2323
X5.6693Y-5.4016
X5.7205Y-5.2874
X5.7677Y-4.7146
X5.7677Y-4.8031
X5.8228Y-4.5748
X5.8543Y-5.063
X5.8661Y-5.5276
X5.9094Y-4.7638
X5.937Y-4.3976
X5.9449Y-4.6142
X5.9449Y-5.1693
X6.0236Y-4.126
X6.0236Y-4.622
X6.0315Y-4.3425
X6.0433Y-5.1693
X6.0728Y-4.5276
X6.0906Y-4.2913
X6.1024Y-4.0866
X6.1181Y-4.3622
X6.1417Y-5.1693
X6.1417Y-5.3386
X6.1535Y-4.3071
X6.1575Y-4.8031
X6.1811Y-4.5748
X6.189Y-4.5079
X6.2008Y-4.4016
X6.2008Y-5.5315
X6.2205Y-4.0354
X6.2205Y-4.4587
X6.2402Y-4.5177
X6.2598Y-4.0787
X6.2598Y-4.185
X6.2697Y-4.4783
X6.3307Y-4.5748
X6.3701Y-4.5827
X6.3976Y-5.8268
X6.4134Y-4.5945
X6.4173Y-4.0866
X6.4252Y-5.6496
X6.4567Y-5.5315
X6.4606Y-5.3346
X6.5118Y-4.689
X6.5197Y-4.311
X6.5453Y-4.3898
X6.5453Y-5.0886
X6.5866Y-4.4094
X6.5866Y-4.9409
X6.6118Y-4.5276
X6.6181Y-4.7756
X6.6772Y-4.7913
X6.6937Y-4.7244
X6.7323Y-4.5768
X6.7618Y-5.0492
X6.7618Y-5.1476
X6.7618Y-5.3445
X6.7717Y-4.8524
X6.9291Y-4.311
X6.9291Y-4.626
X7.2323Y-5.5236
T2
X5.6299Y-4.0551
X5.6299Y-4.1551
X5.6299Y-4.2551
X5.6299Y-4.3551
X5.6299Y-4.4551
X5.6299Y-4.5551
X5.7299Y-4.0551
X5.7299Y-4.1551
X5.7299Y-4.2551
X5.7299Y-4.3551
X5.7299Y-4.4551
X5.7299Y-4.5551
T3
X7.0276Y-4.4685
X7.0276Y-5.2165
X7.0768Y-4.1535
X7.0768Y-4.9016
X7.2047Y-4.311
X7.2047Y-5.0591
T4
X6.9843Y-5.6693
X7.2598Y-5.6693
T5
X7.185Y-4.0256
X7.185Y-4.5965
X7.185Y-4.7736
X7.185Y-5.3445
T0
M30
