G04 #@! TF.FileFunction,Copper,L2,Inr,Signal*
%FSLAX46Y46*%
G04 Gerber Fmt 4.6, Leading zero omitted, Abs format (unit mm)*
G04 Created by KiCad (PCBNEW 4.0.6-e0-6349~53~ubuntu14.04.1) date Sun Oct 15 19:31:36 2017*
%MOMM*%
%LPD*%
G01*
G04 APERTURE LIST*
%ADD10C,0.100000*%
%ADD11C,2.000000*%
%ADD12R,1.727200X1.727200*%
%ADD13O,1.727200X1.727200*%
%ADD14R,1.600000X1.600000*%
%ADD15C,1.600000*%
%ADD16C,0.720000*%
%ADD17C,0.254000*%
G04 APERTURE END LIST*
D10*
D11*
X183000000Y-128500000D03*
X178500000Y-132500000D03*
X179750000Y-124500000D03*
X183000000Y-109500000D03*
X178500000Y-113500000D03*
X179750000Y-105500000D03*
D12*
X143000000Y-103000000D03*
D13*
X145540000Y-103000000D03*
X143000000Y-105540000D03*
X145540000Y-105540000D03*
X143000000Y-108080000D03*
X145540000Y-108080000D03*
X143000000Y-110620000D03*
X145540000Y-110620000D03*
X143000000Y-113160000D03*
X145540000Y-113160000D03*
X143000000Y-115700000D03*
X145540000Y-115700000D03*
D14*
X143250000Y-128250000D03*
D15*
X145750000Y-128250000D03*
D14*
X153750000Y-130750000D03*
D15*
X151250000Y-130750000D03*
D14*
X163000000Y-138500000D03*
D15*
X165500000Y-138500000D03*
D14*
X163000000Y-146000000D03*
D15*
X165500000Y-146000000D03*
D16*
X142750000Y-141450000D03*
X147450000Y-132850000D03*
X146500000Y-122000000D03*
X146500000Y-119750000D03*
X150100000Y-121000000D03*
X153000000Y-117400000D03*
X159000000Y-103600000D03*
X155400000Y-110800000D03*
X161500000Y-132650000D03*
X157750000Y-145050000D03*
X157750000Y-137550000D03*
X183800000Y-140300000D03*
X171750000Y-135750000D03*
X171750000Y-130750000D03*
X171750000Y-128250000D03*
X153000000Y-104800000D03*
X144050000Y-138550000D03*
X142750000Y-137150000D03*
X147750000Y-144650000D03*
X154750000Y-139850000D03*
X149750000Y-135550000D03*
X142200000Y-122000000D03*
X156400000Y-122000000D03*
X176000000Y-109500000D03*
X176000000Y-117500000D03*
X171000000Y-116250000D03*
X172000000Y-123250000D03*
X162900000Y-116700000D03*
X151000000Y-117200000D03*
X155000000Y-103800000D03*
X150800000Y-111700000D03*
X153200000Y-110300000D03*
X159000000Y-106300000D03*
X163000000Y-103800000D03*
X170020002Y-120000000D03*
X154250000Y-115000000D03*
X158000000Y-113250000D03*
X154750000Y-135550000D03*
X152250000Y-135550000D03*
X169600000Y-121700000D03*
X157500000Y-111800000D03*
X154700000Y-109000000D03*
X161750000Y-114300000D03*
X160750000Y-113350000D03*
X170550000Y-133250000D03*
X166250000Y-111500000D03*
X169700000Y-125750000D03*
X167300000Y-112000000D03*
X167940000Y-115000000D03*
X168100000Y-121300000D03*
X165400000Y-119100000D03*
X165600000Y-109500000D03*
X158500000Y-114750000D03*
X159250000Y-113750000D03*
X157200000Y-114500000D03*
X147900000Y-116200000D03*
X157000000Y-116200000D03*
X156300000Y-109400000D03*
X158000000Y-102500000D03*
X162100000Y-115750000D03*
X161600000Y-127500000D03*
D17*
G36*
X180782595Y-101100298D02*
X180473353Y-101845036D01*
X180472649Y-102651426D01*
X180780591Y-103396703D01*
X181350298Y-103967405D01*
X182095036Y-104276647D01*
X182901426Y-104277351D01*
X183646703Y-103969409D01*
X184217405Y-103399702D01*
X184526647Y-102654964D01*
X184527351Y-101848574D01*
X184219409Y-101103297D01*
X183718986Y-100602000D01*
X189398000Y-100602000D01*
X189398000Y-149398000D01*
X140602000Y-149398000D01*
X140602000Y-145200000D01*
X161662676Y-145200000D01*
X161662676Y-146800000D01*
X161699423Y-146995294D01*
X161814842Y-147174660D01*
X161990951Y-147294990D01*
X162200000Y-147337324D01*
X163800000Y-147337324D01*
X163995294Y-147300577D01*
X164174660Y-147185158D01*
X164294990Y-147009049D01*
X164337324Y-146800000D01*
X164337324Y-146661047D01*
X164374369Y-146750703D01*
X164747334Y-147124319D01*
X165234885Y-147326769D01*
X165762798Y-147327229D01*
X166250703Y-147125631D01*
X166624319Y-146752666D01*
X166826769Y-146265115D01*
X166827229Y-145737202D01*
X166625631Y-145249297D01*
X166252666Y-144875681D01*
X165765115Y-144673231D01*
X165237202Y-144672771D01*
X164749297Y-144874369D01*
X164375681Y-145247334D01*
X164337324Y-145339707D01*
X164337324Y-145200000D01*
X164300577Y-145004706D01*
X164185158Y-144825340D01*
X164009049Y-144705010D01*
X163800000Y-144662676D01*
X162200000Y-144662676D01*
X162004706Y-144699423D01*
X161825340Y-144814842D01*
X161705010Y-144990951D01*
X161662676Y-145200000D01*
X140602000Y-145200000D01*
X140602000Y-144272701D01*
X176022762Y-144272701D01*
X176231956Y-144778989D01*
X176618974Y-145166683D01*
X177124896Y-145376760D01*
X177672701Y-145377238D01*
X178178989Y-145168044D01*
X178566683Y-144781026D01*
X178776760Y-144275104D01*
X178776762Y-144272701D01*
X183022762Y-144272701D01*
X183231956Y-144778989D01*
X183618974Y-145166683D01*
X184124896Y-145376760D01*
X184672701Y-145377238D01*
X185178989Y-145168044D01*
X185566683Y-144781026D01*
X185776760Y-144275104D01*
X185777238Y-143727299D01*
X185568044Y-143221011D01*
X185181026Y-142833317D01*
X184675104Y-142623240D01*
X184127299Y-142622762D01*
X183621011Y-142831956D01*
X183233317Y-143218974D01*
X183023240Y-143724896D01*
X183022762Y-144272701D01*
X178776762Y-144272701D01*
X178777238Y-143727299D01*
X178568044Y-143221011D01*
X178181026Y-142833317D01*
X177675104Y-142623240D01*
X177127299Y-142622762D01*
X176621011Y-142831956D01*
X176233317Y-143218974D01*
X176023240Y-143724896D01*
X176022762Y-144272701D01*
X140602000Y-144272701D01*
X140602000Y-141625661D01*
X141862847Y-141625661D01*
X141997600Y-141951789D01*
X142246899Y-142201523D01*
X142572791Y-142336845D01*
X142925661Y-142337153D01*
X143251789Y-142202400D01*
X143501523Y-141953101D01*
X143636845Y-141627209D01*
X143637153Y-141274339D01*
X143502400Y-140948211D01*
X143253101Y-140698477D01*
X142927209Y-140563155D01*
X142574339Y-140562847D01*
X142248211Y-140697600D01*
X141998477Y-140946899D01*
X141863155Y-141272791D01*
X141862847Y-141625661D01*
X140602000Y-141625661D01*
X140602000Y-137700000D01*
X161662676Y-137700000D01*
X161662676Y-139300000D01*
X161699423Y-139495294D01*
X161814842Y-139674660D01*
X161990951Y-139794990D01*
X162200000Y-139837324D01*
X163800000Y-139837324D01*
X163995294Y-139800577D01*
X164174660Y-139685158D01*
X164294990Y-139509049D01*
X164337324Y-139300000D01*
X164337324Y-139161047D01*
X164374369Y-139250703D01*
X164747334Y-139624319D01*
X165234885Y-139826769D01*
X165762798Y-139827229D01*
X166250703Y-139625631D01*
X166624319Y-139252666D01*
X166826769Y-138765115D01*
X166827229Y-138237202D01*
X166625631Y-137749297D01*
X166252666Y-137375681D01*
X165765115Y-137173231D01*
X165237202Y-137172771D01*
X164749297Y-137374369D01*
X164375681Y-137747334D01*
X164337324Y-137839707D01*
X164337324Y-137700000D01*
X164300577Y-137504706D01*
X164185158Y-137325340D01*
X164009049Y-137205010D01*
X163800000Y-137162676D01*
X162200000Y-137162676D01*
X162004706Y-137199423D01*
X161825340Y-137314842D01*
X161705010Y-137490951D01*
X161662676Y-137700000D01*
X140602000Y-137700000D01*
X140602000Y-135725661D01*
X151362847Y-135725661D01*
X151497600Y-136051789D01*
X151746899Y-136301523D01*
X152072791Y-136436845D01*
X152425661Y-136437153D01*
X152751789Y-136302400D01*
X153001523Y-136053101D01*
X153136845Y-135727209D01*
X153136846Y-135725661D01*
X153862847Y-135725661D01*
X153997600Y-136051789D01*
X154246899Y-136301523D01*
X154572791Y-136436845D01*
X154925661Y-136437153D01*
X155251789Y-136302400D01*
X155403026Y-136151426D01*
X180472649Y-136151426D01*
X180780591Y-136896703D01*
X181350298Y-137467405D01*
X182095036Y-137776647D01*
X182901426Y-137777351D01*
X183646703Y-137469409D01*
X184217405Y-136899702D01*
X184526647Y-136154964D01*
X184527351Y-135348574D01*
X184219409Y-134603297D01*
X183649702Y-134032595D01*
X182904964Y-133723353D01*
X182098574Y-133722649D01*
X181353297Y-134030591D01*
X180782595Y-134600298D01*
X180473353Y-135345036D01*
X180472649Y-136151426D01*
X155403026Y-136151426D01*
X155501523Y-136053101D01*
X155636845Y-135727209D01*
X155637153Y-135374339D01*
X155502400Y-135048211D01*
X155253101Y-134798477D01*
X154927209Y-134663155D01*
X154574339Y-134662847D01*
X154248211Y-134797600D01*
X153998477Y-135046899D01*
X153863155Y-135372791D01*
X153862847Y-135725661D01*
X153136846Y-135725661D01*
X153137153Y-135374339D01*
X153002400Y-135048211D01*
X152753101Y-134798477D01*
X152427209Y-134663155D01*
X152074339Y-134662847D01*
X151748211Y-134797600D01*
X151498477Y-135046899D01*
X151363155Y-135372791D01*
X151362847Y-135725661D01*
X140602000Y-135725661D01*
X140602000Y-133025661D01*
X146562847Y-133025661D01*
X146697600Y-133351789D01*
X146946899Y-133601523D01*
X147272791Y-133736845D01*
X147625661Y-133737153D01*
X147951789Y-133602400D01*
X148128836Y-133425661D01*
X169662847Y-133425661D01*
X169797600Y-133751789D01*
X170046899Y-134001523D01*
X170372791Y-134136845D01*
X170725661Y-134137153D01*
X171051789Y-134002400D01*
X171301523Y-133753101D01*
X171436845Y-133427209D01*
X171437153Y-133074339D01*
X171324794Y-132802407D01*
X176972735Y-132802407D01*
X177204717Y-133363846D01*
X177633894Y-133793773D01*
X178194928Y-134026735D01*
X178802407Y-134027265D01*
X179363846Y-133795283D01*
X179793773Y-133366106D01*
X180026735Y-132805072D01*
X180027265Y-132197593D01*
X179795283Y-131636154D01*
X179366106Y-131206227D01*
X178805072Y-130973265D01*
X178197593Y-130972735D01*
X177636154Y-131204717D01*
X177206227Y-131633894D01*
X176973265Y-132194928D01*
X176972735Y-132802407D01*
X171324794Y-132802407D01*
X171302400Y-132748211D01*
X171053101Y-132498477D01*
X170727209Y-132363155D01*
X170374339Y-132362847D01*
X170048211Y-132497600D01*
X169798477Y-132746899D01*
X169663155Y-133072791D01*
X169662847Y-133425661D01*
X148128836Y-133425661D01*
X148201523Y-133353101D01*
X148336845Y-133027209D01*
X148337153Y-132674339D01*
X148202400Y-132348211D01*
X147953101Y-132098477D01*
X147627209Y-131963155D01*
X147274339Y-131962847D01*
X146948211Y-132097600D01*
X146698477Y-132346899D01*
X146563155Y-132672791D01*
X146562847Y-133025661D01*
X140602000Y-133025661D01*
X140602000Y-131698673D01*
X150480932Y-131698673D01*
X150560985Y-131914413D01*
X151059035Y-132089453D01*
X151586157Y-132060572D01*
X151939015Y-131914413D01*
X152019068Y-131698673D01*
X151250000Y-130929605D01*
X150480932Y-131698673D01*
X140602000Y-131698673D01*
X140602000Y-130559035D01*
X149910547Y-130559035D01*
X149939428Y-131086157D01*
X150085587Y-131439015D01*
X150301327Y-131519068D01*
X151070395Y-130750000D01*
X151429605Y-130750000D01*
X152198673Y-131519068D01*
X152412676Y-131439660D01*
X152412676Y-131550000D01*
X152449423Y-131745294D01*
X152564842Y-131924660D01*
X152740951Y-132044990D01*
X152950000Y-132087324D01*
X154550000Y-132087324D01*
X154745294Y-132050577D01*
X154924660Y-131935158D01*
X155044990Y-131759049D01*
X155087324Y-131550000D01*
X155087324Y-129950000D01*
X155050577Y-129754706D01*
X154946869Y-129593538D01*
X182086067Y-129593538D01*
X182190663Y-129830023D01*
X182761248Y-130038501D01*
X183368181Y-130012756D01*
X183809337Y-129830023D01*
X183913933Y-129593538D01*
X183000000Y-128679605D01*
X182086067Y-129593538D01*
X154946869Y-129593538D01*
X154935158Y-129575340D01*
X154759049Y-129455010D01*
X154550000Y-129412676D01*
X152950000Y-129412676D01*
X152754706Y-129449423D01*
X152575340Y-129564842D01*
X152455010Y-129740951D01*
X152412676Y-129950000D01*
X152412676Y-130060340D01*
X152198673Y-129980932D01*
X151429605Y-130750000D01*
X151070395Y-130750000D01*
X150301327Y-129980932D01*
X150085587Y-130060985D01*
X149910547Y-130559035D01*
X140602000Y-130559035D01*
X140602000Y-129801327D01*
X150480932Y-129801327D01*
X151250000Y-130570395D01*
X152019068Y-129801327D01*
X151939015Y-129585587D01*
X151440965Y-129410547D01*
X150913843Y-129439428D01*
X150560985Y-129585587D01*
X150480932Y-129801327D01*
X140602000Y-129801327D01*
X140602000Y-127450000D01*
X141912676Y-127450000D01*
X141912676Y-129050000D01*
X141949423Y-129245294D01*
X142064842Y-129424660D01*
X142240951Y-129544990D01*
X142450000Y-129587324D01*
X144050000Y-129587324D01*
X144245294Y-129550577D01*
X144424660Y-129435158D01*
X144544990Y-129259049D01*
X144557216Y-129198673D01*
X144980932Y-129198673D01*
X145060985Y-129414413D01*
X145559035Y-129589453D01*
X146086157Y-129560572D01*
X146439015Y-129414413D01*
X146519068Y-129198673D01*
X145750000Y-128429605D01*
X144980932Y-129198673D01*
X144557216Y-129198673D01*
X144587324Y-129050000D01*
X144587324Y-128939660D01*
X144801327Y-129019068D01*
X145570395Y-128250000D01*
X145929605Y-128250000D01*
X146698673Y-129019068D01*
X146914413Y-128939015D01*
X147089453Y-128440965D01*
X147060572Y-127913843D01*
X146961914Y-127675661D01*
X160712847Y-127675661D01*
X160847600Y-128001789D01*
X161096899Y-128251523D01*
X161422791Y-128386845D01*
X161775661Y-128387153D01*
X162080375Y-128261248D01*
X181461499Y-128261248D01*
X181487244Y-128868181D01*
X181669977Y-129309337D01*
X181906462Y-129413933D01*
X182820395Y-128500000D01*
X183179605Y-128500000D01*
X184093538Y-129413933D01*
X184330023Y-129309337D01*
X184538501Y-128738752D01*
X184512756Y-128131819D01*
X184330023Y-127690663D01*
X184093538Y-127586067D01*
X183179605Y-128500000D01*
X182820395Y-128500000D01*
X181906462Y-127586067D01*
X181669977Y-127690663D01*
X181461499Y-128261248D01*
X162080375Y-128261248D01*
X162101789Y-128252400D01*
X162351523Y-128003101D01*
X162486845Y-127677209D01*
X162487081Y-127406462D01*
X182086067Y-127406462D01*
X183000000Y-128320395D01*
X183913933Y-127406462D01*
X183809337Y-127169977D01*
X183238752Y-126961499D01*
X182631819Y-126987244D01*
X182190663Y-127169977D01*
X182086067Y-127406462D01*
X162487081Y-127406462D01*
X162487153Y-127324339D01*
X162352400Y-126998211D01*
X162103101Y-126748477D01*
X161777209Y-126613155D01*
X161424339Y-126612847D01*
X161098211Y-126747600D01*
X160848477Y-126996899D01*
X160713155Y-127322791D01*
X160712847Y-127675661D01*
X146961914Y-127675661D01*
X146914413Y-127560985D01*
X146698673Y-127480932D01*
X145929605Y-128250000D01*
X145570395Y-128250000D01*
X144801327Y-127480932D01*
X144587324Y-127560340D01*
X144587324Y-127450000D01*
X144559350Y-127301327D01*
X144980932Y-127301327D01*
X145750000Y-128070395D01*
X146519068Y-127301327D01*
X146439015Y-127085587D01*
X145940965Y-126910547D01*
X145413843Y-126939428D01*
X145060985Y-127085587D01*
X144980932Y-127301327D01*
X144559350Y-127301327D01*
X144550577Y-127254706D01*
X144435158Y-127075340D01*
X144259049Y-126955010D01*
X144050000Y-126912676D01*
X142450000Y-126912676D01*
X142254706Y-126949423D01*
X142075340Y-127064842D01*
X141955010Y-127240951D01*
X141912676Y-127450000D01*
X140602000Y-127450000D01*
X140602000Y-125925661D01*
X168812847Y-125925661D01*
X168947600Y-126251789D01*
X169196899Y-126501523D01*
X169522791Y-126636845D01*
X169875661Y-126637153D01*
X170201789Y-126502400D01*
X170451523Y-126253101D01*
X170586845Y-125927209D01*
X170587153Y-125574339D01*
X170452400Y-125248211D01*
X170203101Y-124998477D01*
X169877209Y-124863155D01*
X169524339Y-124862847D01*
X169198211Y-124997600D01*
X168948477Y-125246899D01*
X168813155Y-125572791D01*
X168812847Y-125925661D01*
X140602000Y-125925661D01*
X140602000Y-124802407D01*
X178222735Y-124802407D01*
X178454717Y-125363846D01*
X178883894Y-125793773D01*
X179444928Y-126026735D01*
X180052407Y-126027265D01*
X180613846Y-125795283D01*
X181043773Y-125366106D01*
X181276735Y-124805072D01*
X181277265Y-124197593D01*
X181045283Y-123636154D01*
X180616106Y-123206227D01*
X180055072Y-122973265D01*
X179447593Y-122972735D01*
X178886154Y-123204717D01*
X178456227Y-123633894D01*
X178223265Y-124194928D01*
X178222735Y-124802407D01*
X140602000Y-124802407D01*
X140602000Y-122175661D01*
X145612847Y-122175661D01*
X145747600Y-122501789D01*
X145996899Y-122751523D01*
X146322791Y-122886845D01*
X146675661Y-122887153D01*
X147001789Y-122752400D01*
X147251523Y-122503101D01*
X147386845Y-122177209D01*
X147387153Y-121824339D01*
X147252400Y-121498211D01*
X147003101Y-121248477D01*
X146827741Y-121175661D01*
X149212847Y-121175661D01*
X149347600Y-121501789D01*
X149596899Y-121751523D01*
X149922791Y-121886845D01*
X150275661Y-121887153D01*
X150601789Y-121752400D01*
X150851523Y-121503101D01*
X150862917Y-121475661D01*
X167212847Y-121475661D01*
X167347600Y-121801789D01*
X167596899Y-122051523D01*
X167922791Y-122186845D01*
X168275661Y-122187153D01*
X168601789Y-122052400D01*
X168732117Y-121922299D01*
X168847600Y-122201789D01*
X169096899Y-122451523D01*
X169422791Y-122586845D01*
X169775661Y-122587153D01*
X170101789Y-122452400D01*
X170351523Y-122203101D01*
X170486845Y-121877209D01*
X170487042Y-121651426D01*
X180472649Y-121651426D01*
X180780591Y-122396703D01*
X181350298Y-122967405D01*
X182095036Y-123276647D01*
X182901426Y-123277351D01*
X183646703Y-122969409D01*
X184217405Y-122399702D01*
X184526647Y-121654964D01*
X184527351Y-120848574D01*
X184219409Y-120103297D01*
X183649702Y-119532595D01*
X182904964Y-119223353D01*
X182098574Y-119222649D01*
X181353297Y-119530591D01*
X180782595Y-120100298D01*
X180473353Y-120845036D01*
X180472649Y-121651426D01*
X170487042Y-121651426D01*
X170487153Y-121524339D01*
X170352400Y-121198211D01*
X170103101Y-120948477D01*
X169777209Y-120813155D01*
X169424339Y-120812847D01*
X169098211Y-120947600D01*
X168967883Y-121077701D01*
X168852400Y-120798211D01*
X168603101Y-120548477D01*
X168277209Y-120413155D01*
X167924339Y-120412847D01*
X167598211Y-120547600D01*
X167348477Y-120796899D01*
X167213155Y-121122791D01*
X167212847Y-121475661D01*
X150862917Y-121475661D01*
X150986845Y-121177209D01*
X150987153Y-120824339D01*
X150852400Y-120498211D01*
X150603101Y-120248477D01*
X150277209Y-120113155D01*
X149924339Y-120112847D01*
X149598211Y-120247600D01*
X149348477Y-120496899D01*
X149213155Y-120822791D01*
X149212847Y-121175661D01*
X146827741Y-121175661D01*
X146677209Y-121113155D01*
X146324339Y-121112847D01*
X145998211Y-121247600D01*
X145748477Y-121496899D01*
X145613155Y-121822791D01*
X145612847Y-122175661D01*
X140602000Y-122175661D01*
X140602000Y-119925661D01*
X145612847Y-119925661D01*
X145747600Y-120251789D01*
X145996899Y-120501523D01*
X146322791Y-120636845D01*
X146675661Y-120637153D01*
X147001789Y-120502400D01*
X147251523Y-120253101D01*
X147386845Y-119927209D01*
X147387153Y-119574339D01*
X147263743Y-119275661D01*
X164512847Y-119275661D01*
X164647600Y-119601789D01*
X164896899Y-119851523D01*
X165222791Y-119986845D01*
X165575661Y-119987153D01*
X165901789Y-119852400D01*
X166151523Y-119603101D01*
X166286845Y-119277209D01*
X166287153Y-118924339D01*
X166152400Y-118598211D01*
X165903101Y-118348477D01*
X165577209Y-118213155D01*
X165224339Y-118212847D01*
X164898211Y-118347600D01*
X164648477Y-118596899D01*
X164513155Y-118922791D01*
X164512847Y-119275661D01*
X147263743Y-119275661D01*
X147252400Y-119248211D01*
X147003101Y-118998477D01*
X146677209Y-118863155D01*
X146324339Y-118862847D01*
X145998211Y-118997600D01*
X145748477Y-119246899D01*
X145613155Y-119572791D01*
X145612847Y-119925661D01*
X140602000Y-119925661D01*
X140602000Y-117575661D01*
X152112847Y-117575661D01*
X152247600Y-117901789D01*
X152496899Y-118151523D01*
X152822791Y-118286845D01*
X153175661Y-118287153D01*
X153501789Y-118152400D01*
X153751523Y-117903101D01*
X153886845Y-117577209D01*
X153887153Y-117224339D01*
X153857027Y-117151426D01*
X180472649Y-117151426D01*
X180780591Y-117896703D01*
X181350298Y-118467405D01*
X182095036Y-118776647D01*
X182901426Y-118777351D01*
X183646703Y-118469409D01*
X184217405Y-117899702D01*
X184526647Y-117154964D01*
X184527351Y-116348574D01*
X184219409Y-115603297D01*
X183649702Y-115032595D01*
X182904964Y-114723353D01*
X182098574Y-114722649D01*
X181353297Y-115030591D01*
X180782595Y-115600298D01*
X180473353Y-116345036D01*
X180472649Y-117151426D01*
X153857027Y-117151426D01*
X153752400Y-116898211D01*
X153503101Y-116648477D01*
X153177209Y-116513155D01*
X152824339Y-116512847D01*
X152498211Y-116647600D01*
X152248477Y-116896899D01*
X152113155Y-117222791D01*
X152112847Y-117575661D01*
X140602000Y-117575661D01*
X140602000Y-115700000D01*
X141582157Y-115700000D01*
X141688010Y-116232160D01*
X141989454Y-116683303D01*
X142440597Y-116984747D01*
X142972757Y-117090600D01*
X143027243Y-117090600D01*
X143559403Y-116984747D01*
X144010546Y-116683303D01*
X144270000Y-116295003D01*
X144529454Y-116683303D01*
X144980597Y-116984747D01*
X145512757Y-117090600D01*
X145567243Y-117090600D01*
X146099403Y-116984747D01*
X146550546Y-116683303D01*
X146756105Y-116375661D01*
X147012847Y-116375661D01*
X147147600Y-116701789D01*
X147396899Y-116951523D01*
X147722791Y-117086845D01*
X148075661Y-117087153D01*
X148401789Y-116952400D01*
X148651523Y-116703101D01*
X148786845Y-116377209D01*
X148786846Y-116375661D01*
X156112847Y-116375661D01*
X156247600Y-116701789D01*
X156496899Y-116951523D01*
X156822791Y-117086845D01*
X157175661Y-117087153D01*
X157501789Y-116952400D01*
X157751523Y-116703101D01*
X157886845Y-116377209D01*
X157887153Y-116024339D01*
X157752400Y-115698211D01*
X157503101Y-115448477D01*
X157355374Y-115387135D01*
X157375661Y-115387153D01*
X157701789Y-115252400D01*
X157734401Y-115219845D01*
X157747600Y-115251789D01*
X157996899Y-115501523D01*
X158322791Y-115636845D01*
X158675661Y-115637153D01*
X159001789Y-115502400D01*
X159251523Y-115253101D01*
X159386845Y-114927209D01*
X159387098Y-114637119D01*
X159425661Y-114637153D01*
X159751789Y-114502400D01*
X160001523Y-114253101D01*
X160118057Y-113972456D01*
X160246899Y-114101523D01*
X160572791Y-114236845D01*
X160863055Y-114237098D01*
X160862847Y-114475661D01*
X160997600Y-114801789D01*
X161246899Y-115051523D01*
X161456859Y-115138706D01*
X161348477Y-115246899D01*
X161213155Y-115572791D01*
X161212847Y-115925661D01*
X161347600Y-116251789D01*
X161596899Y-116501523D01*
X161922791Y-116636845D01*
X162275661Y-116637153D01*
X162601789Y-116502400D01*
X162851523Y-116253101D01*
X162986845Y-115927209D01*
X162987153Y-115574339D01*
X162852400Y-115248211D01*
X162779977Y-115175661D01*
X167052847Y-115175661D01*
X167187600Y-115501789D01*
X167436899Y-115751523D01*
X167762791Y-115886845D01*
X168115661Y-115887153D01*
X168441789Y-115752400D01*
X168691523Y-115503101D01*
X168826845Y-115177209D01*
X168827153Y-114824339D01*
X168692400Y-114498211D01*
X168443101Y-114248477D01*
X168117209Y-114113155D01*
X167764339Y-114112847D01*
X167438211Y-114247600D01*
X167188477Y-114496899D01*
X167053155Y-114822791D01*
X167052847Y-115175661D01*
X162779977Y-115175661D01*
X162603101Y-114998477D01*
X162393141Y-114911294D01*
X162501523Y-114803101D01*
X162636845Y-114477209D01*
X162637153Y-114124339D01*
X162504134Y-113802407D01*
X176972735Y-113802407D01*
X177204717Y-114363846D01*
X177633894Y-114793773D01*
X178194928Y-115026735D01*
X178802407Y-115027265D01*
X179363846Y-114795283D01*
X179793773Y-114366106D01*
X180026735Y-113805072D01*
X180027265Y-113197593D01*
X179795283Y-112636154D01*
X179366106Y-112206227D01*
X178805072Y-111973265D01*
X178197593Y-111972735D01*
X177636154Y-112204717D01*
X177206227Y-112633894D01*
X176973265Y-113194928D01*
X176972735Y-113802407D01*
X162504134Y-113802407D01*
X162502400Y-113798211D01*
X162253101Y-113548477D01*
X161927209Y-113413155D01*
X161636945Y-113412902D01*
X161637153Y-113174339D01*
X161502400Y-112848211D01*
X161253101Y-112598477D01*
X160927209Y-112463155D01*
X160574339Y-112462847D01*
X160248211Y-112597600D01*
X159998477Y-112846899D01*
X159881943Y-113127544D01*
X159753101Y-112998477D01*
X159427209Y-112863155D01*
X159074339Y-112862847D01*
X158748211Y-112997600D01*
X158498477Y-113246899D01*
X158363155Y-113572791D01*
X158362902Y-113862881D01*
X158324339Y-113862847D01*
X157998211Y-113997600D01*
X157965599Y-114030155D01*
X157952400Y-113998211D01*
X157703101Y-113748477D01*
X157377209Y-113613155D01*
X157024339Y-113612847D01*
X156698211Y-113747600D01*
X156448477Y-113996899D01*
X156313155Y-114322791D01*
X156312847Y-114675661D01*
X156447600Y-115001789D01*
X156696899Y-115251523D01*
X156844626Y-115312865D01*
X156824339Y-115312847D01*
X156498211Y-115447600D01*
X156248477Y-115696899D01*
X156113155Y-116022791D01*
X156112847Y-116375661D01*
X148786846Y-116375661D01*
X148787153Y-116024339D01*
X148652400Y-115698211D01*
X148403101Y-115448477D01*
X148077209Y-115313155D01*
X147724339Y-115312847D01*
X147398211Y-115447600D01*
X147148477Y-115696899D01*
X147013155Y-116022791D01*
X147012847Y-116375661D01*
X146756105Y-116375661D01*
X146851990Y-116232160D01*
X146957843Y-115700000D01*
X146851990Y-115167840D01*
X146550546Y-114716697D01*
X146099403Y-114415253D01*
X146083142Y-114412018D01*
X146371841Y-114274378D01*
X146734975Y-113871219D01*
X146887873Y-113502065D01*
X146792427Y-113287000D01*
X145667000Y-113287000D01*
X145667000Y-113307000D01*
X145413000Y-113307000D01*
X145413000Y-113287000D01*
X144287573Y-113287000D01*
X144270000Y-113326597D01*
X144252427Y-113287000D01*
X143127000Y-113287000D01*
X143127000Y-113307000D01*
X142873000Y-113307000D01*
X142873000Y-113287000D01*
X141747573Y-113287000D01*
X141652127Y-113502065D01*
X141805025Y-113871219D01*
X142168159Y-114274378D01*
X142456858Y-114412018D01*
X142440597Y-114415253D01*
X141989454Y-114716697D01*
X141688010Y-115167840D01*
X141582157Y-115700000D01*
X140602000Y-115700000D01*
X140602000Y-105540000D01*
X141582157Y-105540000D01*
X141688010Y-106072160D01*
X141989454Y-106523303D01*
X142418527Y-106810000D01*
X141989454Y-107096697D01*
X141688010Y-107547840D01*
X141582157Y-108080000D01*
X141688010Y-108612160D01*
X141989454Y-109063303D01*
X142418527Y-109350000D01*
X141989454Y-109636697D01*
X141688010Y-110087840D01*
X141582157Y-110620000D01*
X141688010Y-111152160D01*
X141989454Y-111603303D01*
X142440597Y-111904747D01*
X142456858Y-111907982D01*
X142168159Y-112045622D01*
X141805025Y-112448781D01*
X141652127Y-112817935D01*
X141747573Y-113033000D01*
X142873000Y-113033000D01*
X142873000Y-113013000D01*
X143127000Y-113013000D01*
X143127000Y-113033000D01*
X144252427Y-113033000D01*
X144270000Y-112993403D01*
X144287573Y-113033000D01*
X145413000Y-113033000D01*
X145413000Y-113013000D01*
X145667000Y-113013000D01*
X145667000Y-113033000D01*
X146792427Y-113033000D01*
X146887873Y-112817935D01*
X146734975Y-112448781D01*
X146371841Y-112045622D01*
X146225099Y-111975661D01*
X156612847Y-111975661D01*
X156747600Y-112301789D01*
X156996899Y-112551523D01*
X157322791Y-112686845D01*
X157675661Y-112687153D01*
X158001789Y-112552400D01*
X158251523Y-112303101D01*
X158386845Y-111977209D01*
X158387108Y-111675661D01*
X165362847Y-111675661D01*
X165497600Y-112001789D01*
X165746899Y-112251523D01*
X166072791Y-112386845D01*
X166425661Y-112387153D01*
X166489359Y-112360834D01*
X166547600Y-112501789D01*
X166796899Y-112751523D01*
X167122791Y-112886845D01*
X167475661Y-112887153D01*
X167801789Y-112752400D01*
X168051523Y-112503101D01*
X168186845Y-112177209D01*
X168187153Y-111824339D01*
X168052400Y-111498211D01*
X167803101Y-111248477D01*
X167477209Y-111113155D01*
X167124339Y-111112847D01*
X167060641Y-111139166D01*
X167002400Y-110998211D01*
X166753101Y-110748477D01*
X166427209Y-110613155D01*
X166074339Y-110612847D01*
X165748211Y-110747600D01*
X165498477Y-110996899D01*
X165363155Y-111322791D01*
X165362847Y-111675661D01*
X158387108Y-111675661D01*
X158387153Y-111624339D01*
X158252400Y-111298211D01*
X158003101Y-111048477D01*
X157677209Y-110913155D01*
X157324339Y-110912847D01*
X156998211Y-111047600D01*
X156748477Y-111296899D01*
X156613155Y-111622791D01*
X156612847Y-111975661D01*
X146225099Y-111975661D01*
X146083142Y-111907982D01*
X146099403Y-111904747D01*
X146550546Y-111603303D01*
X146851990Y-111152160D01*
X146957843Y-110620000D01*
X146851990Y-110087840D01*
X146550546Y-109636697D01*
X146121473Y-109350000D01*
X146382390Y-109175661D01*
X153812847Y-109175661D01*
X153947600Y-109501789D01*
X154196899Y-109751523D01*
X154522791Y-109886845D01*
X154875661Y-109887153D01*
X155201789Y-109752400D01*
X155412877Y-109541680D01*
X155412847Y-109575661D01*
X155547600Y-109901789D01*
X155558930Y-109913139D01*
X155224339Y-109912847D01*
X154898211Y-110047600D01*
X154648477Y-110296899D01*
X154513155Y-110622791D01*
X154512847Y-110975661D01*
X154647600Y-111301789D01*
X154896899Y-111551523D01*
X155222791Y-111686845D01*
X155575661Y-111687153D01*
X155901789Y-111552400D01*
X156151523Y-111303101D01*
X156286845Y-110977209D01*
X156287153Y-110624339D01*
X156274427Y-110593538D01*
X182086067Y-110593538D01*
X182190663Y-110830023D01*
X182761248Y-111038501D01*
X183368181Y-111012756D01*
X183809337Y-110830023D01*
X183913933Y-110593538D01*
X183000000Y-109679605D01*
X182086067Y-110593538D01*
X156274427Y-110593538D01*
X156152400Y-110298211D01*
X156141070Y-110286861D01*
X156475661Y-110287153D01*
X156801789Y-110152400D01*
X157051523Y-109903101D01*
X157145964Y-109675661D01*
X164712847Y-109675661D01*
X164847600Y-110001789D01*
X165096899Y-110251523D01*
X165422791Y-110386845D01*
X165775661Y-110387153D01*
X166101789Y-110252400D01*
X166351523Y-110003101D01*
X166486845Y-109677209D01*
X166487153Y-109324339D01*
X166461085Y-109261248D01*
X181461499Y-109261248D01*
X181487244Y-109868181D01*
X181669977Y-110309337D01*
X181906462Y-110413933D01*
X182820395Y-109500000D01*
X183179605Y-109500000D01*
X184093538Y-110413933D01*
X184330023Y-110309337D01*
X184538501Y-109738752D01*
X184512756Y-109131819D01*
X184330023Y-108690663D01*
X184093538Y-108586067D01*
X183179605Y-109500000D01*
X182820395Y-109500000D01*
X181906462Y-108586067D01*
X181669977Y-108690663D01*
X181461499Y-109261248D01*
X166461085Y-109261248D01*
X166352400Y-108998211D01*
X166103101Y-108748477D01*
X165777209Y-108613155D01*
X165424339Y-108612847D01*
X165098211Y-108747600D01*
X164848477Y-108996899D01*
X164713155Y-109322791D01*
X164712847Y-109675661D01*
X157145964Y-109675661D01*
X157186845Y-109577209D01*
X157187153Y-109224339D01*
X157052400Y-108898211D01*
X156803101Y-108648477D01*
X156477209Y-108513155D01*
X156124339Y-108512847D01*
X155798211Y-108647600D01*
X155587123Y-108858320D01*
X155587153Y-108824339D01*
X155452400Y-108498211D01*
X155360811Y-108406462D01*
X182086067Y-108406462D01*
X183000000Y-109320395D01*
X183913933Y-108406462D01*
X183809337Y-108169977D01*
X183238752Y-107961499D01*
X182631819Y-107987244D01*
X182190663Y-108169977D01*
X182086067Y-108406462D01*
X155360811Y-108406462D01*
X155203101Y-108248477D01*
X154877209Y-108113155D01*
X154524339Y-108112847D01*
X154198211Y-108247600D01*
X153948477Y-108496899D01*
X153813155Y-108822791D01*
X153812847Y-109175661D01*
X146382390Y-109175661D01*
X146550546Y-109063303D01*
X146851990Y-108612160D01*
X146957843Y-108080000D01*
X146851990Y-107547840D01*
X146550546Y-107096697D01*
X146121473Y-106810000D01*
X146550546Y-106523303D01*
X146851990Y-106072160D01*
X146905647Y-105802407D01*
X178222735Y-105802407D01*
X178454717Y-106363846D01*
X178883894Y-106793773D01*
X179444928Y-107026735D01*
X180052407Y-107027265D01*
X180613846Y-106795283D01*
X181043773Y-106366106D01*
X181276735Y-105805072D01*
X181277265Y-105197593D01*
X181045283Y-104636154D01*
X180616106Y-104206227D01*
X180055072Y-103973265D01*
X179447593Y-103972735D01*
X178886154Y-104204717D01*
X178456227Y-104633894D01*
X178223265Y-105194928D01*
X178222735Y-105802407D01*
X146905647Y-105802407D01*
X146957843Y-105540000D01*
X146851990Y-105007840D01*
X146550546Y-104556697D01*
X146121473Y-104270000D01*
X146550546Y-103983303D01*
X146851990Y-103532160D01*
X146957843Y-103000000D01*
X146893329Y-102675661D01*
X157112847Y-102675661D01*
X157247600Y-103001789D01*
X157496899Y-103251523D01*
X157822791Y-103386845D01*
X158127970Y-103387111D01*
X158113155Y-103422791D01*
X158112847Y-103775661D01*
X158247600Y-104101789D01*
X158496899Y-104351523D01*
X158822791Y-104486845D01*
X159175661Y-104487153D01*
X159501789Y-104352400D01*
X159751523Y-104103101D01*
X159886845Y-103777209D01*
X159887153Y-103424339D01*
X159752400Y-103098211D01*
X159503101Y-102848477D01*
X159177209Y-102713155D01*
X158872030Y-102712889D01*
X158886845Y-102677209D01*
X158887153Y-102324339D01*
X158752400Y-101998211D01*
X158503101Y-101748477D01*
X158177209Y-101613155D01*
X157824339Y-101612847D01*
X157498211Y-101747600D01*
X157248477Y-101996899D01*
X157113155Y-102322791D01*
X157112847Y-102675661D01*
X146893329Y-102675661D01*
X146851990Y-102467840D01*
X146550546Y-102016697D01*
X146099403Y-101715253D01*
X145567243Y-101609400D01*
X145512757Y-101609400D01*
X144980597Y-101715253D01*
X144529454Y-102016697D01*
X144400924Y-102209056D01*
X144400924Y-102136400D01*
X144364177Y-101941106D01*
X144248758Y-101761740D01*
X144072649Y-101641410D01*
X143863600Y-101599076D01*
X142136400Y-101599076D01*
X141941106Y-101635823D01*
X141761740Y-101751242D01*
X141641410Y-101927351D01*
X141599076Y-102136400D01*
X141599076Y-103863600D01*
X141635823Y-104058894D01*
X141751242Y-104238260D01*
X141927351Y-104358590D01*
X142136400Y-104400924D01*
X142222585Y-104400924D01*
X141989454Y-104556697D01*
X141688010Y-105007840D01*
X141582157Y-105540000D01*
X140602000Y-105540000D01*
X140602000Y-100602000D01*
X181281763Y-100602000D01*
X180782595Y-101100298D01*
X180782595Y-101100298D01*
G37*
X180782595Y-101100298D02*
X180473353Y-101845036D01*
X180472649Y-102651426D01*
X180780591Y-103396703D01*
X181350298Y-103967405D01*
X182095036Y-104276647D01*
X182901426Y-104277351D01*
X183646703Y-103969409D01*
X184217405Y-103399702D01*
X184526647Y-102654964D01*
X184527351Y-101848574D01*
X184219409Y-101103297D01*
X183718986Y-100602000D01*
X189398000Y-100602000D01*
X189398000Y-149398000D01*
X140602000Y-149398000D01*
X140602000Y-145200000D01*
X161662676Y-145200000D01*
X161662676Y-146800000D01*
X161699423Y-146995294D01*
X161814842Y-147174660D01*
X161990951Y-147294990D01*
X162200000Y-147337324D01*
X163800000Y-147337324D01*
X163995294Y-147300577D01*
X164174660Y-147185158D01*
X164294990Y-147009049D01*
X164337324Y-146800000D01*
X164337324Y-146661047D01*
X164374369Y-146750703D01*
X164747334Y-147124319D01*
X165234885Y-147326769D01*
X165762798Y-147327229D01*
X166250703Y-147125631D01*
X166624319Y-146752666D01*
X166826769Y-146265115D01*
X166827229Y-145737202D01*
X166625631Y-145249297D01*
X166252666Y-144875681D01*
X165765115Y-144673231D01*
X165237202Y-144672771D01*
X164749297Y-144874369D01*
X164375681Y-145247334D01*
X164337324Y-145339707D01*
X164337324Y-145200000D01*
X164300577Y-145004706D01*
X164185158Y-144825340D01*
X164009049Y-144705010D01*
X163800000Y-144662676D01*
X162200000Y-144662676D01*
X162004706Y-144699423D01*
X161825340Y-144814842D01*
X161705010Y-144990951D01*
X161662676Y-145200000D01*
X140602000Y-145200000D01*
X140602000Y-144272701D01*
X176022762Y-144272701D01*
X176231956Y-144778989D01*
X176618974Y-145166683D01*
X177124896Y-145376760D01*
X177672701Y-145377238D01*
X178178989Y-145168044D01*
X178566683Y-144781026D01*
X178776760Y-144275104D01*
X178776762Y-144272701D01*
X183022762Y-144272701D01*
X183231956Y-144778989D01*
X183618974Y-145166683D01*
X184124896Y-145376760D01*
X184672701Y-145377238D01*
X185178989Y-145168044D01*
X185566683Y-144781026D01*
X185776760Y-144275104D01*
X185777238Y-143727299D01*
X185568044Y-143221011D01*
X185181026Y-142833317D01*
X184675104Y-142623240D01*
X184127299Y-142622762D01*
X183621011Y-142831956D01*
X183233317Y-143218974D01*
X183023240Y-143724896D01*
X183022762Y-144272701D01*
X178776762Y-144272701D01*
X178777238Y-143727299D01*
X178568044Y-143221011D01*
X178181026Y-142833317D01*
X177675104Y-142623240D01*
X177127299Y-142622762D01*
X176621011Y-142831956D01*
X176233317Y-143218974D01*
X176023240Y-143724896D01*
X176022762Y-144272701D01*
X140602000Y-144272701D01*
X140602000Y-141625661D01*
X141862847Y-141625661D01*
X141997600Y-141951789D01*
X142246899Y-142201523D01*
X142572791Y-142336845D01*
X142925661Y-142337153D01*
X143251789Y-142202400D01*
X143501523Y-141953101D01*
X143636845Y-141627209D01*
X143637153Y-141274339D01*
X143502400Y-140948211D01*
X143253101Y-140698477D01*
X142927209Y-140563155D01*
X142574339Y-140562847D01*
X142248211Y-140697600D01*
X141998477Y-140946899D01*
X141863155Y-141272791D01*
X141862847Y-141625661D01*
X140602000Y-141625661D01*
X140602000Y-137700000D01*
X161662676Y-137700000D01*
X161662676Y-139300000D01*
X161699423Y-139495294D01*
X161814842Y-139674660D01*
X161990951Y-139794990D01*
X162200000Y-139837324D01*
X163800000Y-139837324D01*
X163995294Y-139800577D01*
X164174660Y-139685158D01*
X164294990Y-139509049D01*
X164337324Y-139300000D01*
X164337324Y-139161047D01*
X164374369Y-139250703D01*
X164747334Y-139624319D01*
X165234885Y-139826769D01*
X165762798Y-139827229D01*
X166250703Y-139625631D01*
X166624319Y-139252666D01*
X166826769Y-138765115D01*
X166827229Y-138237202D01*
X166625631Y-137749297D01*
X166252666Y-137375681D01*
X165765115Y-137173231D01*
X165237202Y-137172771D01*
X164749297Y-137374369D01*
X164375681Y-137747334D01*
X164337324Y-137839707D01*
X164337324Y-137700000D01*
X164300577Y-137504706D01*
X164185158Y-137325340D01*
X164009049Y-137205010D01*
X163800000Y-137162676D01*
X162200000Y-137162676D01*
X162004706Y-137199423D01*
X161825340Y-137314842D01*
X161705010Y-137490951D01*
X161662676Y-137700000D01*
X140602000Y-137700000D01*
X140602000Y-135725661D01*
X151362847Y-135725661D01*
X151497600Y-136051789D01*
X151746899Y-136301523D01*
X152072791Y-136436845D01*
X152425661Y-136437153D01*
X152751789Y-136302400D01*
X153001523Y-136053101D01*
X153136845Y-135727209D01*
X153136846Y-135725661D01*
X153862847Y-135725661D01*
X153997600Y-136051789D01*
X154246899Y-136301523D01*
X154572791Y-136436845D01*
X154925661Y-136437153D01*
X155251789Y-136302400D01*
X155403026Y-136151426D01*
X180472649Y-136151426D01*
X180780591Y-136896703D01*
X181350298Y-137467405D01*
X182095036Y-137776647D01*
X182901426Y-137777351D01*
X183646703Y-137469409D01*
X184217405Y-136899702D01*
X184526647Y-136154964D01*
X184527351Y-135348574D01*
X184219409Y-134603297D01*
X183649702Y-134032595D01*
X182904964Y-133723353D01*
X182098574Y-133722649D01*
X181353297Y-134030591D01*
X180782595Y-134600298D01*
X180473353Y-135345036D01*
X180472649Y-136151426D01*
X155403026Y-136151426D01*
X155501523Y-136053101D01*
X155636845Y-135727209D01*
X155637153Y-135374339D01*
X155502400Y-135048211D01*
X155253101Y-134798477D01*
X154927209Y-134663155D01*
X154574339Y-134662847D01*
X154248211Y-134797600D01*
X153998477Y-135046899D01*
X153863155Y-135372791D01*
X153862847Y-135725661D01*
X153136846Y-135725661D01*
X153137153Y-135374339D01*
X153002400Y-135048211D01*
X152753101Y-134798477D01*
X152427209Y-134663155D01*
X152074339Y-134662847D01*
X151748211Y-134797600D01*
X151498477Y-135046899D01*
X151363155Y-135372791D01*
X151362847Y-135725661D01*
X140602000Y-135725661D01*
X140602000Y-133025661D01*
X146562847Y-133025661D01*
X146697600Y-133351789D01*
X146946899Y-133601523D01*
X147272791Y-133736845D01*
X147625661Y-133737153D01*
X147951789Y-133602400D01*
X148128836Y-133425661D01*
X169662847Y-133425661D01*
X169797600Y-133751789D01*
X170046899Y-134001523D01*
X170372791Y-134136845D01*
X170725661Y-134137153D01*
X171051789Y-134002400D01*
X171301523Y-133753101D01*
X171436845Y-133427209D01*
X171437153Y-133074339D01*
X171324794Y-132802407D01*
X176972735Y-132802407D01*
X177204717Y-133363846D01*
X177633894Y-133793773D01*
X178194928Y-134026735D01*
X178802407Y-134027265D01*
X179363846Y-133795283D01*
X179793773Y-133366106D01*
X180026735Y-132805072D01*
X180027265Y-132197593D01*
X179795283Y-131636154D01*
X179366106Y-131206227D01*
X178805072Y-130973265D01*
X178197593Y-130972735D01*
X177636154Y-131204717D01*
X177206227Y-131633894D01*
X176973265Y-132194928D01*
X176972735Y-132802407D01*
X171324794Y-132802407D01*
X171302400Y-132748211D01*
X171053101Y-132498477D01*
X170727209Y-132363155D01*
X170374339Y-132362847D01*
X170048211Y-132497600D01*
X169798477Y-132746899D01*
X169663155Y-133072791D01*
X169662847Y-133425661D01*
X148128836Y-133425661D01*
X148201523Y-133353101D01*
X148336845Y-133027209D01*
X148337153Y-132674339D01*
X148202400Y-132348211D01*
X147953101Y-132098477D01*
X147627209Y-131963155D01*
X147274339Y-131962847D01*
X146948211Y-132097600D01*
X146698477Y-132346899D01*
X146563155Y-132672791D01*
X146562847Y-133025661D01*
X140602000Y-133025661D01*
X140602000Y-131698673D01*
X150480932Y-131698673D01*
X150560985Y-131914413D01*
X151059035Y-132089453D01*
X151586157Y-132060572D01*
X151939015Y-131914413D01*
X152019068Y-131698673D01*
X151250000Y-130929605D01*
X150480932Y-131698673D01*
X140602000Y-131698673D01*
X140602000Y-130559035D01*
X149910547Y-130559035D01*
X149939428Y-131086157D01*
X150085587Y-131439015D01*
X150301327Y-131519068D01*
X151070395Y-130750000D01*
X151429605Y-130750000D01*
X152198673Y-131519068D01*
X152412676Y-131439660D01*
X152412676Y-131550000D01*
X152449423Y-131745294D01*
X152564842Y-131924660D01*
X152740951Y-132044990D01*
X152950000Y-132087324D01*
X154550000Y-132087324D01*
X154745294Y-132050577D01*
X154924660Y-131935158D01*
X155044990Y-131759049D01*
X155087324Y-131550000D01*
X155087324Y-129950000D01*
X155050577Y-129754706D01*
X154946869Y-129593538D01*
X182086067Y-129593538D01*
X182190663Y-129830023D01*
X182761248Y-130038501D01*
X183368181Y-130012756D01*
X183809337Y-129830023D01*
X183913933Y-129593538D01*
X183000000Y-128679605D01*
X182086067Y-129593538D01*
X154946869Y-129593538D01*
X154935158Y-129575340D01*
X154759049Y-129455010D01*
X154550000Y-129412676D01*
X152950000Y-129412676D01*
X152754706Y-129449423D01*
X152575340Y-129564842D01*
X152455010Y-129740951D01*
X152412676Y-129950000D01*
X152412676Y-130060340D01*
X152198673Y-129980932D01*
X151429605Y-130750000D01*
X151070395Y-130750000D01*
X150301327Y-129980932D01*
X150085587Y-130060985D01*
X149910547Y-130559035D01*
X140602000Y-130559035D01*
X140602000Y-129801327D01*
X150480932Y-129801327D01*
X151250000Y-130570395D01*
X152019068Y-129801327D01*
X151939015Y-129585587D01*
X151440965Y-129410547D01*
X150913843Y-129439428D01*
X150560985Y-129585587D01*
X150480932Y-129801327D01*
X140602000Y-129801327D01*
X140602000Y-127450000D01*
X141912676Y-127450000D01*
X141912676Y-129050000D01*
X141949423Y-129245294D01*
X142064842Y-129424660D01*
X142240951Y-129544990D01*
X142450000Y-129587324D01*
X144050000Y-129587324D01*
X144245294Y-129550577D01*
X144424660Y-129435158D01*
X144544990Y-129259049D01*
X144557216Y-129198673D01*
X144980932Y-129198673D01*
X145060985Y-129414413D01*
X145559035Y-129589453D01*
X146086157Y-129560572D01*
X146439015Y-129414413D01*
X146519068Y-129198673D01*
X145750000Y-128429605D01*
X144980932Y-129198673D01*
X144557216Y-129198673D01*
X144587324Y-129050000D01*
X144587324Y-128939660D01*
X144801327Y-129019068D01*
X145570395Y-128250000D01*
X145929605Y-128250000D01*
X146698673Y-129019068D01*
X146914413Y-128939015D01*
X147089453Y-128440965D01*
X147060572Y-127913843D01*
X146961914Y-127675661D01*
X160712847Y-127675661D01*
X160847600Y-128001789D01*
X161096899Y-128251523D01*
X161422791Y-128386845D01*
X161775661Y-128387153D01*
X162080375Y-128261248D01*
X181461499Y-128261248D01*
X181487244Y-128868181D01*
X181669977Y-129309337D01*
X181906462Y-129413933D01*
X182820395Y-128500000D01*
X183179605Y-128500000D01*
X184093538Y-129413933D01*
X184330023Y-129309337D01*
X184538501Y-128738752D01*
X184512756Y-128131819D01*
X184330023Y-127690663D01*
X184093538Y-127586067D01*
X183179605Y-128500000D01*
X182820395Y-128500000D01*
X181906462Y-127586067D01*
X181669977Y-127690663D01*
X181461499Y-128261248D01*
X162080375Y-128261248D01*
X162101789Y-128252400D01*
X162351523Y-128003101D01*
X162486845Y-127677209D01*
X162487081Y-127406462D01*
X182086067Y-127406462D01*
X183000000Y-128320395D01*
X183913933Y-127406462D01*
X183809337Y-127169977D01*
X183238752Y-126961499D01*
X182631819Y-126987244D01*
X182190663Y-127169977D01*
X182086067Y-127406462D01*
X162487081Y-127406462D01*
X162487153Y-127324339D01*
X162352400Y-126998211D01*
X162103101Y-126748477D01*
X161777209Y-126613155D01*
X161424339Y-126612847D01*
X161098211Y-126747600D01*
X160848477Y-126996899D01*
X160713155Y-127322791D01*
X160712847Y-127675661D01*
X146961914Y-127675661D01*
X146914413Y-127560985D01*
X146698673Y-127480932D01*
X145929605Y-128250000D01*
X145570395Y-128250000D01*
X144801327Y-127480932D01*
X144587324Y-127560340D01*
X144587324Y-127450000D01*
X144559350Y-127301327D01*
X144980932Y-127301327D01*
X145750000Y-128070395D01*
X146519068Y-127301327D01*
X146439015Y-127085587D01*
X145940965Y-126910547D01*
X145413843Y-126939428D01*
X145060985Y-127085587D01*
X144980932Y-127301327D01*
X144559350Y-127301327D01*
X144550577Y-127254706D01*
X144435158Y-127075340D01*
X144259049Y-126955010D01*
X144050000Y-126912676D01*
X142450000Y-126912676D01*
X142254706Y-126949423D01*
X142075340Y-127064842D01*
X141955010Y-127240951D01*
X141912676Y-127450000D01*
X140602000Y-127450000D01*
X140602000Y-125925661D01*
X168812847Y-125925661D01*
X168947600Y-126251789D01*
X169196899Y-126501523D01*
X169522791Y-126636845D01*
X169875661Y-126637153D01*
X170201789Y-126502400D01*
X170451523Y-126253101D01*
X170586845Y-125927209D01*
X170587153Y-125574339D01*
X170452400Y-125248211D01*
X170203101Y-124998477D01*
X169877209Y-124863155D01*
X169524339Y-124862847D01*
X169198211Y-124997600D01*
X168948477Y-125246899D01*
X168813155Y-125572791D01*
X168812847Y-125925661D01*
X140602000Y-125925661D01*
X140602000Y-124802407D01*
X178222735Y-124802407D01*
X178454717Y-125363846D01*
X178883894Y-125793773D01*
X179444928Y-126026735D01*
X180052407Y-126027265D01*
X180613846Y-125795283D01*
X181043773Y-125366106D01*
X181276735Y-124805072D01*
X181277265Y-124197593D01*
X181045283Y-123636154D01*
X180616106Y-123206227D01*
X180055072Y-122973265D01*
X179447593Y-122972735D01*
X178886154Y-123204717D01*
X178456227Y-123633894D01*
X178223265Y-124194928D01*
X178222735Y-124802407D01*
X140602000Y-124802407D01*
X140602000Y-122175661D01*
X145612847Y-122175661D01*
X145747600Y-122501789D01*
X145996899Y-122751523D01*
X146322791Y-122886845D01*
X146675661Y-122887153D01*
X147001789Y-122752400D01*
X147251523Y-122503101D01*
X147386845Y-122177209D01*
X147387153Y-121824339D01*
X147252400Y-121498211D01*
X147003101Y-121248477D01*
X146827741Y-121175661D01*
X149212847Y-121175661D01*
X149347600Y-121501789D01*
X149596899Y-121751523D01*
X149922791Y-121886845D01*
X150275661Y-121887153D01*
X150601789Y-121752400D01*
X150851523Y-121503101D01*
X150862917Y-121475661D01*
X167212847Y-121475661D01*
X167347600Y-121801789D01*
X167596899Y-122051523D01*
X167922791Y-122186845D01*
X168275661Y-122187153D01*
X168601789Y-122052400D01*
X168732117Y-121922299D01*
X168847600Y-122201789D01*
X169096899Y-122451523D01*
X169422791Y-122586845D01*
X169775661Y-122587153D01*
X170101789Y-122452400D01*
X170351523Y-122203101D01*
X170486845Y-121877209D01*
X170487042Y-121651426D01*
X180472649Y-121651426D01*
X180780591Y-122396703D01*
X181350298Y-122967405D01*
X182095036Y-123276647D01*
X182901426Y-123277351D01*
X183646703Y-122969409D01*
X184217405Y-122399702D01*
X184526647Y-121654964D01*
X184527351Y-120848574D01*
X184219409Y-120103297D01*
X183649702Y-119532595D01*
X182904964Y-119223353D01*
X182098574Y-119222649D01*
X181353297Y-119530591D01*
X180782595Y-120100298D01*
X180473353Y-120845036D01*
X180472649Y-121651426D01*
X170487042Y-121651426D01*
X170487153Y-121524339D01*
X170352400Y-121198211D01*
X170103101Y-120948477D01*
X169777209Y-120813155D01*
X169424339Y-120812847D01*
X169098211Y-120947600D01*
X168967883Y-121077701D01*
X168852400Y-120798211D01*
X168603101Y-120548477D01*
X168277209Y-120413155D01*
X167924339Y-120412847D01*
X167598211Y-120547600D01*
X167348477Y-120796899D01*
X167213155Y-121122791D01*
X167212847Y-121475661D01*
X150862917Y-121475661D01*
X150986845Y-121177209D01*
X150987153Y-120824339D01*
X150852400Y-120498211D01*
X150603101Y-120248477D01*
X150277209Y-120113155D01*
X149924339Y-120112847D01*
X149598211Y-120247600D01*
X149348477Y-120496899D01*
X149213155Y-120822791D01*
X149212847Y-121175661D01*
X146827741Y-121175661D01*
X146677209Y-121113155D01*
X146324339Y-121112847D01*
X145998211Y-121247600D01*
X145748477Y-121496899D01*
X145613155Y-121822791D01*
X145612847Y-122175661D01*
X140602000Y-122175661D01*
X140602000Y-119925661D01*
X145612847Y-119925661D01*
X145747600Y-120251789D01*
X145996899Y-120501523D01*
X146322791Y-120636845D01*
X146675661Y-120637153D01*
X147001789Y-120502400D01*
X147251523Y-120253101D01*
X147386845Y-119927209D01*
X147387153Y-119574339D01*
X147263743Y-119275661D01*
X164512847Y-119275661D01*
X164647600Y-119601789D01*
X164896899Y-119851523D01*
X165222791Y-119986845D01*
X165575661Y-119987153D01*
X165901789Y-119852400D01*
X166151523Y-119603101D01*
X166286845Y-119277209D01*
X166287153Y-118924339D01*
X166152400Y-118598211D01*
X165903101Y-118348477D01*
X165577209Y-118213155D01*
X165224339Y-118212847D01*
X164898211Y-118347600D01*
X164648477Y-118596899D01*
X164513155Y-118922791D01*
X164512847Y-119275661D01*
X147263743Y-119275661D01*
X147252400Y-119248211D01*
X147003101Y-118998477D01*
X146677209Y-118863155D01*
X146324339Y-118862847D01*
X145998211Y-118997600D01*
X145748477Y-119246899D01*
X145613155Y-119572791D01*
X145612847Y-119925661D01*
X140602000Y-119925661D01*
X140602000Y-117575661D01*
X152112847Y-117575661D01*
X152247600Y-117901789D01*
X152496899Y-118151523D01*
X152822791Y-118286845D01*
X153175661Y-118287153D01*
X153501789Y-118152400D01*
X153751523Y-117903101D01*
X153886845Y-117577209D01*
X153887153Y-117224339D01*
X153857027Y-117151426D01*
X180472649Y-117151426D01*
X180780591Y-117896703D01*
X181350298Y-118467405D01*
X182095036Y-118776647D01*
X182901426Y-118777351D01*
X183646703Y-118469409D01*
X184217405Y-117899702D01*
X184526647Y-117154964D01*
X184527351Y-116348574D01*
X184219409Y-115603297D01*
X183649702Y-115032595D01*
X182904964Y-114723353D01*
X182098574Y-114722649D01*
X181353297Y-115030591D01*
X180782595Y-115600298D01*
X180473353Y-116345036D01*
X180472649Y-117151426D01*
X153857027Y-117151426D01*
X153752400Y-116898211D01*
X153503101Y-116648477D01*
X153177209Y-116513155D01*
X152824339Y-116512847D01*
X152498211Y-116647600D01*
X152248477Y-116896899D01*
X152113155Y-117222791D01*
X152112847Y-117575661D01*
X140602000Y-117575661D01*
X140602000Y-115700000D01*
X141582157Y-115700000D01*
X141688010Y-116232160D01*
X141989454Y-116683303D01*
X142440597Y-116984747D01*
X142972757Y-117090600D01*
X143027243Y-117090600D01*
X143559403Y-116984747D01*
X144010546Y-116683303D01*
X144270000Y-116295003D01*
X144529454Y-116683303D01*
X144980597Y-116984747D01*
X145512757Y-117090600D01*
X145567243Y-117090600D01*
X146099403Y-116984747D01*
X146550546Y-116683303D01*
X146756105Y-116375661D01*
X147012847Y-116375661D01*
X147147600Y-116701789D01*
X147396899Y-116951523D01*
X147722791Y-117086845D01*
X148075661Y-117087153D01*
X148401789Y-116952400D01*
X148651523Y-116703101D01*
X148786845Y-116377209D01*
X148786846Y-116375661D01*
X156112847Y-116375661D01*
X156247600Y-116701789D01*
X156496899Y-116951523D01*
X156822791Y-117086845D01*
X157175661Y-117087153D01*
X157501789Y-116952400D01*
X157751523Y-116703101D01*
X157886845Y-116377209D01*
X157887153Y-116024339D01*
X157752400Y-115698211D01*
X157503101Y-115448477D01*
X157355374Y-115387135D01*
X157375661Y-115387153D01*
X157701789Y-115252400D01*
X157734401Y-115219845D01*
X157747600Y-115251789D01*
X157996899Y-115501523D01*
X158322791Y-115636845D01*
X158675661Y-115637153D01*
X159001789Y-115502400D01*
X159251523Y-115253101D01*
X159386845Y-114927209D01*
X159387098Y-114637119D01*
X159425661Y-114637153D01*
X159751789Y-114502400D01*
X160001523Y-114253101D01*
X160118057Y-113972456D01*
X160246899Y-114101523D01*
X160572791Y-114236845D01*
X160863055Y-114237098D01*
X160862847Y-114475661D01*
X160997600Y-114801789D01*
X161246899Y-115051523D01*
X161456859Y-115138706D01*
X161348477Y-115246899D01*
X161213155Y-115572791D01*
X161212847Y-115925661D01*
X161347600Y-116251789D01*
X161596899Y-116501523D01*
X161922791Y-116636845D01*
X162275661Y-116637153D01*
X162601789Y-116502400D01*
X162851523Y-116253101D01*
X162986845Y-115927209D01*
X162987153Y-115574339D01*
X162852400Y-115248211D01*
X162779977Y-115175661D01*
X167052847Y-115175661D01*
X167187600Y-115501789D01*
X167436899Y-115751523D01*
X167762791Y-115886845D01*
X168115661Y-115887153D01*
X168441789Y-115752400D01*
X168691523Y-115503101D01*
X168826845Y-115177209D01*
X168827153Y-114824339D01*
X168692400Y-114498211D01*
X168443101Y-114248477D01*
X168117209Y-114113155D01*
X167764339Y-114112847D01*
X167438211Y-114247600D01*
X167188477Y-114496899D01*
X167053155Y-114822791D01*
X167052847Y-115175661D01*
X162779977Y-115175661D01*
X162603101Y-114998477D01*
X162393141Y-114911294D01*
X162501523Y-114803101D01*
X162636845Y-114477209D01*
X162637153Y-114124339D01*
X162504134Y-113802407D01*
X176972735Y-113802407D01*
X177204717Y-114363846D01*
X177633894Y-114793773D01*
X178194928Y-115026735D01*
X178802407Y-115027265D01*
X179363846Y-114795283D01*
X179793773Y-114366106D01*
X180026735Y-113805072D01*
X180027265Y-113197593D01*
X179795283Y-112636154D01*
X179366106Y-112206227D01*
X178805072Y-111973265D01*
X178197593Y-111972735D01*
X177636154Y-112204717D01*
X177206227Y-112633894D01*
X176973265Y-113194928D01*
X176972735Y-113802407D01*
X162504134Y-113802407D01*
X162502400Y-113798211D01*
X162253101Y-113548477D01*
X161927209Y-113413155D01*
X161636945Y-113412902D01*
X161637153Y-113174339D01*
X161502400Y-112848211D01*
X161253101Y-112598477D01*
X160927209Y-112463155D01*
X160574339Y-112462847D01*
X160248211Y-112597600D01*
X159998477Y-112846899D01*
X159881943Y-113127544D01*
X159753101Y-112998477D01*
X159427209Y-112863155D01*
X159074339Y-112862847D01*
X158748211Y-112997600D01*
X158498477Y-113246899D01*
X158363155Y-113572791D01*
X158362902Y-113862881D01*
X158324339Y-113862847D01*
X157998211Y-113997600D01*
X157965599Y-114030155D01*
X157952400Y-113998211D01*
X157703101Y-113748477D01*
X157377209Y-113613155D01*
X157024339Y-113612847D01*
X156698211Y-113747600D01*
X156448477Y-113996899D01*
X156313155Y-114322791D01*
X156312847Y-114675661D01*
X156447600Y-115001789D01*
X156696899Y-115251523D01*
X156844626Y-115312865D01*
X156824339Y-115312847D01*
X156498211Y-115447600D01*
X156248477Y-115696899D01*
X156113155Y-116022791D01*
X156112847Y-116375661D01*
X148786846Y-116375661D01*
X148787153Y-116024339D01*
X148652400Y-115698211D01*
X148403101Y-115448477D01*
X148077209Y-115313155D01*
X147724339Y-115312847D01*
X147398211Y-115447600D01*
X147148477Y-115696899D01*
X147013155Y-116022791D01*
X147012847Y-116375661D01*
X146756105Y-116375661D01*
X146851990Y-116232160D01*
X146957843Y-115700000D01*
X146851990Y-115167840D01*
X146550546Y-114716697D01*
X146099403Y-114415253D01*
X146083142Y-114412018D01*
X146371841Y-114274378D01*
X146734975Y-113871219D01*
X146887873Y-113502065D01*
X146792427Y-113287000D01*
X145667000Y-113287000D01*
X145667000Y-113307000D01*
X145413000Y-113307000D01*
X145413000Y-113287000D01*
X144287573Y-113287000D01*
X144270000Y-113326597D01*
X144252427Y-113287000D01*
X143127000Y-113287000D01*
X143127000Y-113307000D01*
X142873000Y-113307000D01*
X142873000Y-113287000D01*
X141747573Y-113287000D01*
X141652127Y-113502065D01*
X141805025Y-113871219D01*
X142168159Y-114274378D01*
X142456858Y-114412018D01*
X142440597Y-114415253D01*
X141989454Y-114716697D01*
X141688010Y-115167840D01*
X141582157Y-115700000D01*
X140602000Y-115700000D01*
X140602000Y-105540000D01*
X141582157Y-105540000D01*
X141688010Y-106072160D01*
X141989454Y-106523303D01*
X142418527Y-106810000D01*
X141989454Y-107096697D01*
X141688010Y-107547840D01*
X141582157Y-108080000D01*
X141688010Y-108612160D01*
X141989454Y-109063303D01*
X142418527Y-109350000D01*
X141989454Y-109636697D01*
X141688010Y-110087840D01*
X141582157Y-110620000D01*
X141688010Y-111152160D01*
X141989454Y-111603303D01*
X142440597Y-111904747D01*
X142456858Y-111907982D01*
X142168159Y-112045622D01*
X141805025Y-112448781D01*
X141652127Y-112817935D01*
X141747573Y-113033000D01*
X142873000Y-113033000D01*
X142873000Y-113013000D01*
X143127000Y-113013000D01*
X143127000Y-113033000D01*
X144252427Y-113033000D01*
X144270000Y-112993403D01*
X144287573Y-113033000D01*
X145413000Y-113033000D01*
X145413000Y-113013000D01*
X145667000Y-113013000D01*
X145667000Y-113033000D01*
X146792427Y-113033000D01*
X146887873Y-112817935D01*
X146734975Y-112448781D01*
X146371841Y-112045622D01*
X146225099Y-111975661D01*
X156612847Y-111975661D01*
X156747600Y-112301789D01*
X156996899Y-112551523D01*
X157322791Y-112686845D01*
X157675661Y-112687153D01*
X158001789Y-112552400D01*
X158251523Y-112303101D01*
X158386845Y-111977209D01*
X158387108Y-111675661D01*
X165362847Y-111675661D01*
X165497600Y-112001789D01*
X165746899Y-112251523D01*
X166072791Y-112386845D01*
X166425661Y-112387153D01*
X166489359Y-112360834D01*
X166547600Y-112501789D01*
X166796899Y-112751523D01*
X167122791Y-112886845D01*
X167475661Y-112887153D01*
X167801789Y-112752400D01*
X168051523Y-112503101D01*
X168186845Y-112177209D01*
X168187153Y-111824339D01*
X168052400Y-111498211D01*
X167803101Y-111248477D01*
X167477209Y-111113155D01*
X167124339Y-111112847D01*
X167060641Y-111139166D01*
X167002400Y-110998211D01*
X166753101Y-110748477D01*
X166427209Y-110613155D01*
X166074339Y-110612847D01*
X165748211Y-110747600D01*
X165498477Y-110996899D01*
X165363155Y-111322791D01*
X165362847Y-111675661D01*
X158387108Y-111675661D01*
X158387153Y-111624339D01*
X158252400Y-111298211D01*
X158003101Y-111048477D01*
X157677209Y-110913155D01*
X157324339Y-110912847D01*
X156998211Y-111047600D01*
X156748477Y-111296899D01*
X156613155Y-111622791D01*
X156612847Y-111975661D01*
X146225099Y-111975661D01*
X146083142Y-111907982D01*
X146099403Y-111904747D01*
X146550546Y-111603303D01*
X146851990Y-111152160D01*
X146957843Y-110620000D01*
X146851990Y-110087840D01*
X146550546Y-109636697D01*
X146121473Y-109350000D01*
X146382390Y-109175661D01*
X153812847Y-109175661D01*
X153947600Y-109501789D01*
X154196899Y-109751523D01*
X154522791Y-109886845D01*
X154875661Y-109887153D01*
X155201789Y-109752400D01*
X155412877Y-109541680D01*
X155412847Y-109575661D01*
X155547600Y-109901789D01*
X155558930Y-109913139D01*
X155224339Y-109912847D01*
X154898211Y-110047600D01*
X154648477Y-110296899D01*
X154513155Y-110622791D01*
X154512847Y-110975661D01*
X154647600Y-111301789D01*
X154896899Y-111551523D01*
X155222791Y-111686845D01*
X155575661Y-111687153D01*
X155901789Y-111552400D01*
X156151523Y-111303101D01*
X156286845Y-110977209D01*
X156287153Y-110624339D01*
X156274427Y-110593538D01*
X182086067Y-110593538D01*
X182190663Y-110830023D01*
X182761248Y-111038501D01*
X183368181Y-111012756D01*
X183809337Y-110830023D01*
X183913933Y-110593538D01*
X183000000Y-109679605D01*
X182086067Y-110593538D01*
X156274427Y-110593538D01*
X156152400Y-110298211D01*
X156141070Y-110286861D01*
X156475661Y-110287153D01*
X156801789Y-110152400D01*
X157051523Y-109903101D01*
X157145964Y-109675661D01*
X164712847Y-109675661D01*
X164847600Y-110001789D01*
X165096899Y-110251523D01*
X165422791Y-110386845D01*
X165775661Y-110387153D01*
X166101789Y-110252400D01*
X166351523Y-110003101D01*
X166486845Y-109677209D01*
X166487153Y-109324339D01*
X166461085Y-109261248D01*
X181461499Y-109261248D01*
X181487244Y-109868181D01*
X181669977Y-110309337D01*
X181906462Y-110413933D01*
X182820395Y-109500000D01*
X183179605Y-109500000D01*
X184093538Y-110413933D01*
X184330023Y-110309337D01*
X184538501Y-109738752D01*
X184512756Y-109131819D01*
X184330023Y-108690663D01*
X184093538Y-108586067D01*
X183179605Y-109500000D01*
X182820395Y-109500000D01*
X181906462Y-108586067D01*
X181669977Y-108690663D01*
X181461499Y-109261248D01*
X166461085Y-109261248D01*
X166352400Y-108998211D01*
X166103101Y-108748477D01*
X165777209Y-108613155D01*
X165424339Y-108612847D01*
X165098211Y-108747600D01*
X164848477Y-108996899D01*
X164713155Y-109322791D01*
X164712847Y-109675661D01*
X157145964Y-109675661D01*
X157186845Y-109577209D01*
X157187153Y-109224339D01*
X157052400Y-108898211D01*
X156803101Y-108648477D01*
X156477209Y-108513155D01*
X156124339Y-108512847D01*
X155798211Y-108647600D01*
X155587123Y-108858320D01*
X155587153Y-108824339D01*
X155452400Y-108498211D01*
X155360811Y-108406462D01*
X182086067Y-108406462D01*
X183000000Y-109320395D01*
X183913933Y-108406462D01*
X183809337Y-108169977D01*
X183238752Y-107961499D01*
X182631819Y-107987244D01*
X182190663Y-108169977D01*
X182086067Y-108406462D01*
X155360811Y-108406462D01*
X155203101Y-108248477D01*
X154877209Y-108113155D01*
X154524339Y-108112847D01*
X154198211Y-108247600D01*
X153948477Y-108496899D01*
X153813155Y-108822791D01*
X153812847Y-109175661D01*
X146382390Y-109175661D01*
X146550546Y-109063303D01*
X146851990Y-108612160D01*
X146957843Y-108080000D01*
X146851990Y-107547840D01*
X146550546Y-107096697D01*
X146121473Y-106810000D01*
X146550546Y-106523303D01*
X146851990Y-106072160D01*
X146905647Y-105802407D01*
X178222735Y-105802407D01*
X178454717Y-106363846D01*
X178883894Y-106793773D01*
X179444928Y-107026735D01*
X180052407Y-107027265D01*
X180613846Y-106795283D01*
X181043773Y-106366106D01*
X181276735Y-105805072D01*
X181277265Y-105197593D01*
X181045283Y-104636154D01*
X180616106Y-104206227D01*
X180055072Y-103973265D01*
X179447593Y-103972735D01*
X178886154Y-104204717D01*
X178456227Y-104633894D01*
X178223265Y-105194928D01*
X178222735Y-105802407D01*
X146905647Y-105802407D01*
X146957843Y-105540000D01*
X146851990Y-105007840D01*
X146550546Y-104556697D01*
X146121473Y-104270000D01*
X146550546Y-103983303D01*
X146851990Y-103532160D01*
X146957843Y-103000000D01*
X146893329Y-102675661D01*
X157112847Y-102675661D01*
X157247600Y-103001789D01*
X157496899Y-103251523D01*
X157822791Y-103386845D01*
X158127970Y-103387111D01*
X158113155Y-103422791D01*
X158112847Y-103775661D01*
X158247600Y-104101789D01*
X158496899Y-104351523D01*
X158822791Y-104486845D01*
X159175661Y-104487153D01*
X159501789Y-104352400D01*
X159751523Y-104103101D01*
X159886845Y-103777209D01*
X159887153Y-103424339D01*
X159752400Y-103098211D01*
X159503101Y-102848477D01*
X159177209Y-102713155D01*
X158872030Y-102712889D01*
X158886845Y-102677209D01*
X158887153Y-102324339D01*
X158752400Y-101998211D01*
X158503101Y-101748477D01*
X158177209Y-101613155D01*
X157824339Y-101612847D01*
X157498211Y-101747600D01*
X157248477Y-101996899D01*
X157113155Y-102322791D01*
X157112847Y-102675661D01*
X146893329Y-102675661D01*
X146851990Y-102467840D01*
X146550546Y-102016697D01*
X146099403Y-101715253D01*
X145567243Y-101609400D01*
X145512757Y-101609400D01*
X144980597Y-101715253D01*
X144529454Y-102016697D01*
X144400924Y-102209056D01*
X144400924Y-102136400D01*
X144364177Y-101941106D01*
X144248758Y-101761740D01*
X144072649Y-101641410D01*
X143863600Y-101599076D01*
X142136400Y-101599076D01*
X141941106Y-101635823D01*
X141761740Y-101751242D01*
X141641410Y-101927351D01*
X141599076Y-102136400D01*
X141599076Y-103863600D01*
X141635823Y-104058894D01*
X141751242Y-104238260D01*
X141927351Y-104358590D01*
X142136400Y-104400924D01*
X142222585Y-104400924D01*
X141989454Y-104556697D01*
X141688010Y-105007840D01*
X141582157Y-105540000D01*
X140602000Y-105540000D01*
X140602000Y-100602000D01*
X181281763Y-100602000D01*
X180782595Y-101100298D01*
M02*
