G04 #@! TF.FileFunction,Copper,L3,Inr,Signal*
%FSLAX46Y46*%
G04 Gerber Fmt 4.6, Leading zero omitted, Abs format (unit mm)*
G04 Created by KiCad (PCBNEW 4.0.4+e1-6308~48~ubuntu14.04.1-stable) date Wed Oct 26 00:23:15 2016*
%MOMM*%
%LPD*%
G01*
G04 APERTURE LIST*
%ADD10C,0.100000*%
%ADD11C,2.000000*%
%ADD12R,1.727200X1.727200*%
%ADD13O,1.727200X1.727200*%
%ADD14C,0.720000*%
%ADD15C,0.254000*%
G04 APERTURE END LIST*
D10*
D11*
X183000000Y-128500000D03*
X178500000Y-132500000D03*
X179750000Y-124500000D03*
X183000000Y-109500000D03*
X178500000Y-113500000D03*
X179750000Y-105500000D03*
D12*
X143000000Y-103000000D03*
D13*
X145540000Y-103000000D03*
X143000000Y-105540000D03*
X145540000Y-105540000D03*
X143000000Y-108080000D03*
X145540000Y-108080000D03*
X143000000Y-110620000D03*
X145540000Y-110620000D03*
X143000000Y-113160000D03*
X145540000Y-113160000D03*
X143000000Y-115700000D03*
X145540000Y-115700000D03*
D14*
X164100000Y-135500000D03*
X144000000Y-137200000D03*
X148700000Y-128600000D03*
X146500000Y-122000000D03*
X146500000Y-119750000D03*
X150100000Y-121000000D03*
X153000000Y-117400000D03*
X159000000Y-103600000D03*
X155400000Y-110800000D03*
X171750000Y-135750000D03*
X171750000Y-130750000D03*
X171750000Y-128250000D03*
X153000000Y-104800000D03*
X145300000Y-134300000D03*
X144000000Y-132900000D03*
X149000000Y-140400000D03*
X156000000Y-135600000D03*
X151000000Y-131300000D03*
X142200000Y-122000000D03*
X156400000Y-122000000D03*
X183700000Y-140300000D03*
X176000000Y-109500000D03*
X176000000Y-117500000D03*
X171000000Y-116250000D03*
X172000000Y-123250000D03*
X164000000Y-140500000D03*
X157500000Y-140500000D03*
X162900000Y-116700000D03*
X151000000Y-117200000D03*
X155000000Y-103800000D03*
X150800000Y-111700000D03*
X153200000Y-110300000D03*
X159000000Y-106300000D03*
X163000000Y-103800000D03*
X170020002Y-120000000D03*
X154250000Y-115000000D03*
X158000000Y-113250000D03*
X156000000Y-131300000D03*
X153500000Y-131300000D03*
X169600000Y-121700000D03*
X157500000Y-111800000D03*
X154700000Y-109000000D03*
X163200000Y-143500000D03*
X161800000Y-116400000D03*
X162500000Y-148000000D03*
X160800000Y-116200000D03*
X166250000Y-111500000D03*
X166250000Y-129250000D03*
X167300000Y-112000000D03*
X167300000Y-125500000D03*
X167940000Y-115000000D03*
X168100000Y-121300000D03*
X165400000Y-119100000D03*
X165600000Y-109500000D03*
X158500000Y-114750000D03*
X159250000Y-113750000D03*
X157200000Y-114500000D03*
X147900000Y-116200000D03*
X157000000Y-116200000D03*
X156300000Y-109400000D03*
X158000000Y-102500000D03*
D15*
G36*
X161296899Y-117151523D02*
X161622791Y-117286845D01*
X161975661Y-117287153D01*
X162157721Y-117211928D01*
X162396899Y-117451523D01*
X162722791Y-117586845D01*
X163075661Y-117587153D01*
X163401789Y-117452400D01*
X163651523Y-117203101D01*
X163683123Y-117127000D01*
X170799082Y-117127000D01*
X170822791Y-117136845D01*
X170873000Y-117136889D01*
X170873000Y-119741677D01*
X170772402Y-119498211D01*
X170523103Y-119248477D01*
X170197211Y-119113155D01*
X169844341Y-119112847D01*
X169518213Y-119247600D01*
X169268479Y-119496899D01*
X169133157Y-119822791D01*
X169132849Y-120175661D01*
X169267602Y-120501789D01*
X169516901Y-120751523D01*
X169842793Y-120886845D01*
X170195663Y-120887153D01*
X170521791Y-120752400D01*
X170771525Y-120503101D01*
X170873000Y-120258722D01*
X170873000Y-122873000D01*
X164000000Y-122873000D01*
X163950590Y-122883006D01*
X163908965Y-122911447D01*
X163881685Y-122953841D01*
X163873000Y-123000000D01*
X163873000Y-131873000D01*
X153127000Y-131873000D01*
X153127000Y-125127000D01*
X159000000Y-125127000D01*
X159049410Y-125116994D01*
X159091035Y-125088553D01*
X159118315Y-125046159D01*
X159127000Y-125000000D01*
X159127000Y-121475661D01*
X167212847Y-121475661D01*
X167347600Y-121801789D01*
X167596899Y-122051523D01*
X167922791Y-122186845D01*
X168275661Y-122187153D01*
X168601789Y-122052400D01*
X168851523Y-121803101D01*
X168986845Y-121477209D01*
X168987153Y-121124339D01*
X168852400Y-120798211D01*
X168603101Y-120548477D01*
X168277209Y-120413155D01*
X167924339Y-120412847D01*
X167598211Y-120547600D01*
X167348477Y-120796899D01*
X167213155Y-121122791D01*
X167212847Y-121475661D01*
X159127000Y-121475661D01*
X159127000Y-119275661D01*
X164512847Y-119275661D01*
X164647600Y-119601789D01*
X164896899Y-119851523D01*
X165222791Y-119986845D01*
X165575661Y-119987153D01*
X165901789Y-119852400D01*
X166151523Y-119603101D01*
X166286845Y-119277209D01*
X166287153Y-118924339D01*
X166152400Y-118598211D01*
X165903101Y-118348477D01*
X165577209Y-118213155D01*
X165224339Y-118212847D01*
X164898211Y-118347600D01*
X164648477Y-118596899D01*
X164513155Y-118922791D01*
X164512847Y-119275661D01*
X159127000Y-119275661D01*
X159127000Y-117127000D01*
X161272419Y-117127000D01*
X161296899Y-117151523D01*
X161296899Y-117151523D01*
G37*
X161296899Y-117151523D02*
X161622791Y-117286845D01*
X161975661Y-117287153D01*
X162157721Y-117211928D01*
X162396899Y-117451523D01*
X162722791Y-117586845D01*
X163075661Y-117587153D01*
X163401789Y-117452400D01*
X163651523Y-117203101D01*
X163683123Y-117127000D01*
X170799082Y-117127000D01*
X170822791Y-117136845D01*
X170873000Y-117136889D01*
X170873000Y-119741677D01*
X170772402Y-119498211D01*
X170523103Y-119248477D01*
X170197211Y-119113155D01*
X169844341Y-119112847D01*
X169518213Y-119247600D01*
X169268479Y-119496899D01*
X169133157Y-119822791D01*
X169132849Y-120175661D01*
X169267602Y-120501789D01*
X169516901Y-120751523D01*
X169842793Y-120886845D01*
X170195663Y-120887153D01*
X170521791Y-120752400D01*
X170771525Y-120503101D01*
X170873000Y-120258722D01*
X170873000Y-122873000D01*
X164000000Y-122873000D01*
X163950590Y-122883006D01*
X163908965Y-122911447D01*
X163881685Y-122953841D01*
X163873000Y-123000000D01*
X163873000Y-131873000D01*
X153127000Y-131873000D01*
X153127000Y-125127000D01*
X159000000Y-125127000D01*
X159049410Y-125116994D01*
X159091035Y-125088553D01*
X159118315Y-125046159D01*
X159127000Y-125000000D01*
X159127000Y-121475661D01*
X167212847Y-121475661D01*
X167347600Y-121801789D01*
X167596899Y-122051523D01*
X167922791Y-122186845D01*
X168275661Y-122187153D01*
X168601789Y-122052400D01*
X168851523Y-121803101D01*
X168986845Y-121477209D01*
X168987153Y-121124339D01*
X168852400Y-120798211D01*
X168603101Y-120548477D01*
X168277209Y-120413155D01*
X167924339Y-120412847D01*
X167598211Y-120547600D01*
X167348477Y-120796899D01*
X167213155Y-121122791D01*
X167212847Y-121475661D01*
X159127000Y-121475661D01*
X159127000Y-119275661D01*
X164512847Y-119275661D01*
X164647600Y-119601789D01*
X164896899Y-119851523D01*
X165222791Y-119986845D01*
X165575661Y-119987153D01*
X165901789Y-119852400D01*
X166151523Y-119603101D01*
X166286845Y-119277209D01*
X166287153Y-118924339D01*
X166152400Y-118598211D01*
X165903101Y-118348477D01*
X165577209Y-118213155D01*
X165224339Y-118212847D01*
X164898211Y-118347600D01*
X164648477Y-118596899D01*
X164513155Y-118922791D01*
X164512847Y-119275661D01*
X159127000Y-119275661D01*
X159127000Y-117127000D01*
X161272419Y-117127000D01*
X161296899Y-117151523D01*
G36*
X180782595Y-101100298D02*
X180473353Y-101845036D01*
X180472649Y-102651426D01*
X180780591Y-103396703D01*
X181350298Y-103967405D01*
X182095036Y-104276647D01*
X182901426Y-104277351D01*
X183646703Y-103969409D01*
X184217405Y-103399702D01*
X184526647Y-102654964D01*
X184527351Y-101848574D01*
X184219409Y-101103297D01*
X183718986Y-100602000D01*
X189398000Y-100602000D01*
X189398000Y-149398000D01*
X140602000Y-149398000D01*
X140602000Y-148175661D01*
X161612847Y-148175661D01*
X161747600Y-148501789D01*
X161996899Y-148751523D01*
X162322791Y-148886845D01*
X162675661Y-148887153D01*
X163001789Y-148752400D01*
X163251523Y-148503101D01*
X163386845Y-148177209D01*
X163387153Y-147824339D01*
X163252400Y-147498211D01*
X163003101Y-147248477D01*
X162677209Y-147113155D01*
X162324339Y-147112847D01*
X161998211Y-147247600D01*
X161748477Y-147496899D01*
X161613155Y-147822791D01*
X161612847Y-148175661D01*
X140602000Y-148175661D01*
X140602000Y-143675661D01*
X162312847Y-143675661D01*
X162447600Y-144001789D01*
X162696899Y-144251523D01*
X163022791Y-144386845D01*
X163375661Y-144387153D01*
X163652656Y-144272701D01*
X176022762Y-144272701D01*
X176231956Y-144778989D01*
X176618974Y-145166683D01*
X177124896Y-145376760D01*
X177672701Y-145377238D01*
X178178989Y-145168044D01*
X178566683Y-144781026D01*
X178776760Y-144275104D01*
X178776762Y-144272701D01*
X183022762Y-144272701D01*
X183231956Y-144778989D01*
X183618974Y-145166683D01*
X184124896Y-145376760D01*
X184672701Y-145377238D01*
X185178989Y-145168044D01*
X185566683Y-144781026D01*
X185776760Y-144275104D01*
X185777238Y-143727299D01*
X185568044Y-143221011D01*
X185181026Y-142833317D01*
X184675104Y-142623240D01*
X184127299Y-142622762D01*
X183621011Y-142831956D01*
X183233317Y-143218974D01*
X183023240Y-143724896D01*
X183022762Y-144272701D01*
X178776762Y-144272701D01*
X178777238Y-143727299D01*
X178568044Y-143221011D01*
X178181026Y-142833317D01*
X177675104Y-142623240D01*
X177127299Y-142622762D01*
X176621011Y-142831956D01*
X176233317Y-143218974D01*
X176023240Y-143724896D01*
X176022762Y-144272701D01*
X163652656Y-144272701D01*
X163701789Y-144252400D01*
X163951523Y-144003101D01*
X164086845Y-143677209D01*
X164087153Y-143324339D01*
X163952400Y-142998211D01*
X163703101Y-142748477D01*
X163377209Y-142613155D01*
X163024339Y-142612847D01*
X162698211Y-142747600D01*
X162448477Y-142996899D01*
X162313155Y-143322791D01*
X162312847Y-143675661D01*
X140602000Y-143675661D01*
X140602000Y-140575661D01*
X148112847Y-140575661D01*
X148247600Y-140901789D01*
X148496899Y-141151523D01*
X148822791Y-141286845D01*
X149175661Y-141287153D01*
X149501789Y-141152400D01*
X149751523Y-140903101D01*
X149845964Y-140675661D01*
X156612847Y-140675661D01*
X156747600Y-141001789D01*
X156996899Y-141251523D01*
X157322791Y-141386845D01*
X157675661Y-141387153D01*
X158001789Y-141252400D01*
X158251523Y-141003101D01*
X158386845Y-140677209D01*
X158386846Y-140675661D01*
X163112847Y-140675661D01*
X163247600Y-141001789D01*
X163496899Y-141251523D01*
X163822791Y-141386845D01*
X164175661Y-141387153D01*
X164501789Y-141252400D01*
X164751523Y-141003101D01*
X164886845Y-140677209D01*
X164887020Y-140475661D01*
X182812847Y-140475661D01*
X182947600Y-140801789D01*
X183196899Y-141051523D01*
X183522791Y-141186845D01*
X183875661Y-141187153D01*
X184201789Y-141052400D01*
X184451523Y-140803101D01*
X184586845Y-140477209D01*
X184587153Y-140124339D01*
X184452400Y-139798211D01*
X184203101Y-139548477D01*
X183877209Y-139413155D01*
X183524339Y-139412847D01*
X183198211Y-139547600D01*
X182948477Y-139796899D01*
X182813155Y-140122791D01*
X182812847Y-140475661D01*
X164887020Y-140475661D01*
X164887153Y-140324339D01*
X164752400Y-139998211D01*
X164503101Y-139748477D01*
X164177209Y-139613155D01*
X163824339Y-139612847D01*
X163498211Y-139747600D01*
X163248477Y-139996899D01*
X163113155Y-140322791D01*
X163112847Y-140675661D01*
X158386846Y-140675661D01*
X158387153Y-140324339D01*
X158252400Y-139998211D01*
X158003101Y-139748477D01*
X157677209Y-139613155D01*
X157324339Y-139612847D01*
X156998211Y-139747600D01*
X156748477Y-139996899D01*
X156613155Y-140322791D01*
X156612847Y-140675661D01*
X149845964Y-140675661D01*
X149886845Y-140577209D01*
X149887153Y-140224339D01*
X149752400Y-139898211D01*
X149503101Y-139648477D01*
X149177209Y-139513155D01*
X148824339Y-139512847D01*
X148498211Y-139647600D01*
X148248477Y-139896899D01*
X148113155Y-140222791D01*
X148112847Y-140575661D01*
X140602000Y-140575661D01*
X140602000Y-135775661D01*
X155112847Y-135775661D01*
X155247600Y-136101789D01*
X155496899Y-136351523D01*
X155822791Y-136486845D01*
X156175661Y-136487153D01*
X156501789Y-136352400D01*
X156751523Y-136103101D01*
X156825202Y-135925661D01*
X170862847Y-135925661D01*
X170997600Y-136251789D01*
X171246899Y-136501523D01*
X171572791Y-136636845D01*
X171925661Y-136637153D01*
X172251789Y-136502400D01*
X172501523Y-136253101D01*
X172543742Y-136151426D01*
X180472649Y-136151426D01*
X180780591Y-136896703D01*
X181350298Y-137467405D01*
X182095036Y-137776647D01*
X182901426Y-137777351D01*
X183646703Y-137469409D01*
X184217405Y-136899702D01*
X184526647Y-136154964D01*
X184527351Y-135348574D01*
X184219409Y-134603297D01*
X183649702Y-134032595D01*
X182904964Y-133723353D01*
X182098574Y-133722649D01*
X181353297Y-134030591D01*
X180782595Y-134600298D01*
X180473353Y-135345036D01*
X180472649Y-136151426D01*
X172543742Y-136151426D01*
X172636845Y-135927209D01*
X172637153Y-135574339D01*
X172502400Y-135248211D01*
X172253101Y-134998477D01*
X171927209Y-134863155D01*
X171574339Y-134862847D01*
X171248211Y-134997600D01*
X170998477Y-135246899D01*
X170863155Y-135572791D01*
X170862847Y-135925661D01*
X156825202Y-135925661D01*
X156886845Y-135777209D01*
X156887153Y-135424339D01*
X156752400Y-135098211D01*
X156503101Y-134848477D01*
X156177209Y-134713155D01*
X155824339Y-134712847D01*
X155498211Y-134847600D01*
X155248477Y-135096899D01*
X155113155Y-135422791D01*
X155112847Y-135775661D01*
X140602000Y-135775661D01*
X140602000Y-134475661D01*
X144412847Y-134475661D01*
X144547600Y-134801789D01*
X144796899Y-135051523D01*
X145122791Y-135186845D01*
X145475661Y-135187153D01*
X145801789Y-135052400D01*
X146051523Y-134803101D01*
X146186845Y-134477209D01*
X146187153Y-134124339D01*
X146052400Y-133798211D01*
X145803101Y-133548477D01*
X145477209Y-133413155D01*
X145124339Y-133412847D01*
X144798211Y-133547600D01*
X144548477Y-133796899D01*
X144413155Y-134122791D01*
X144412847Y-134475661D01*
X140602000Y-134475661D01*
X140602000Y-133075661D01*
X143112847Y-133075661D01*
X143247600Y-133401789D01*
X143496899Y-133651523D01*
X143822791Y-133786845D01*
X144175661Y-133787153D01*
X144501789Y-133652400D01*
X144751523Y-133403101D01*
X144886845Y-133077209D01*
X144887084Y-132802407D01*
X176972735Y-132802407D01*
X177204717Y-133363846D01*
X177633894Y-133793773D01*
X178194928Y-134026735D01*
X178802407Y-134027265D01*
X179363846Y-133795283D01*
X179793773Y-133366106D01*
X180026735Y-132805072D01*
X180027265Y-132197593D01*
X179795283Y-131636154D01*
X179366106Y-131206227D01*
X178805072Y-130973265D01*
X178197593Y-130972735D01*
X177636154Y-131204717D01*
X177206227Y-131633894D01*
X176973265Y-132194928D01*
X176972735Y-132802407D01*
X144887084Y-132802407D01*
X144887153Y-132724339D01*
X144752400Y-132398211D01*
X144503101Y-132148477D01*
X144177209Y-132013155D01*
X143824339Y-132012847D01*
X143498211Y-132147600D01*
X143248477Y-132396899D01*
X143113155Y-132722791D01*
X143112847Y-133075661D01*
X140602000Y-133075661D01*
X140602000Y-131475661D01*
X150112847Y-131475661D01*
X150247600Y-131801789D01*
X150496899Y-132051523D01*
X150822791Y-132186845D01*
X151175661Y-132187153D01*
X151501789Y-132052400D01*
X151751523Y-131803101D01*
X151886845Y-131477209D01*
X151887153Y-131124339D01*
X151752400Y-130798211D01*
X151503101Y-130548477D01*
X151177209Y-130413155D01*
X150824339Y-130412847D01*
X150498211Y-130547600D01*
X150248477Y-130796899D01*
X150113155Y-131122791D01*
X150112847Y-131475661D01*
X140602000Y-131475661D01*
X140602000Y-125000000D01*
X152473000Y-125000000D01*
X152473000Y-132000000D01*
X152509041Y-132191542D01*
X152622242Y-132367462D01*
X152794967Y-132485480D01*
X153000000Y-132527000D01*
X164000000Y-132527000D01*
X164191542Y-132490959D01*
X164367462Y-132377758D01*
X164485480Y-132205033D01*
X164527000Y-132000000D01*
X164527000Y-130925661D01*
X170862847Y-130925661D01*
X170997600Y-131251789D01*
X171246899Y-131501523D01*
X171572791Y-131636845D01*
X171925661Y-131637153D01*
X172251789Y-131502400D01*
X172501523Y-131253101D01*
X172636845Y-130927209D01*
X172637153Y-130574339D01*
X172502400Y-130248211D01*
X172253101Y-129998477D01*
X171927209Y-129863155D01*
X171574339Y-129862847D01*
X171248211Y-129997600D01*
X170998477Y-130246899D01*
X170863155Y-130572791D01*
X170862847Y-130925661D01*
X164527000Y-130925661D01*
X164527000Y-129425661D01*
X165362847Y-129425661D01*
X165497600Y-129751789D01*
X165746899Y-130001523D01*
X166072791Y-130136845D01*
X166425661Y-130137153D01*
X166751789Y-130002400D01*
X167001523Y-129753101D01*
X167136845Y-129427209D01*
X167137153Y-129074339D01*
X167002400Y-128748211D01*
X166753101Y-128498477D01*
X166577741Y-128425661D01*
X170862847Y-128425661D01*
X170997600Y-128751789D01*
X171246899Y-129001523D01*
X171572791Y-129136845D01*
X171925661Y-129137153D01*
X172251789Y-129002400D01*
X172452130Y-128802407D01*
X181472735Y-128802407D01*
X181704717Y-129363846D01*
X182133894Y-129793773D01*
X182694928Y-130026735D01*
X183302407Y-130027265D01*
X183863846Y-129795283D01*
X184293773Y-129366106D01*
X184526735Y-128805072D01*
X184527265Y-128197593D01*
X184295283Y-127636154D01*
X183866106Y-127206227D01*
X183305072Y-126973265D01*
X182697593Y-126972735D01*
X182136154Y-127204717D01*
X181706227Y-127633894D01*
X181473265Y-128194928D01*
X181472735Y-128802407D01*
X172452130Y-128802407D01*
X172501523Y-128753101D01*
X172636845Y-128427209D01*
X172637153Y-128074339D01*
X172502400Y-127748211D01*
X172253101Y-127498477D01*
X171927209Y-127363155D01*
X171574339Y-127362847D01*
X171248211Y-127497600D01*
X170998477Y-127746899D01*
X170863155Y-128072791D01*
X170862847Y-128425661D01*
X166577741Y-128425661D01*
X166427209Y-128363155D01*
X166074339Y-128362847D01*
X165748211Y-128497600D01*
X165498477Y-128746899D01*
X165363155Y-129072791D01*
X165362847Y-129425661D01*
X164527000Y-129425661D01*
X164527000Y-125675661D01*
X166412847Y-125675661D01*
X166547600Y-126001789D01*
X166796899Y-126251523D01*
X167122791Y-126386845D01*
X167475661Y-126387153D01*
X167801789Y-126252400D01*
X168051523Y-126003101D01*
X168186845Y-125677209D01*
X168187153Y-125324339D01*
X168052400Y-124998211D01*
X167856938Y-124802407D01*
X178222735Y-124802407D01*
X178454717Y-125363846D01*
X178883894Y-125793773D01*
X179444928Y-126026735D01*
X180052407Y-126027265D01*
X180613846Y-125795283D01*
X181043773Y-125366106D01*
X181276735Y-124805072D01*
X181277265Y-124197593D01*
X181045283Y-123636154D01*
X180616106Y-123206227D01*
X180055072Y-122973265D01*
X179447593Y-122972735D01*
X178886154Y-123204717D01*
X178456227Y-123633894D01*
X178223265Y-124194928D01*
X178222735Y-124802407D01*
X167856938Y-124802407D01*
X167803101Y-124748477D01*
X167477209Y-124613155D01*
X167124339Y-124612847D01*
X166798211Y-124747600D01*
X166548477Y-124996899D01*
X166413155Y-125322791D01*
X166412847Y-125675661D01*
X164527000Y-125675661D01*
X164527000Y-123527000D01*
X171000000Y-123527000D01*
X171143558Y-123499988D01*
X171247600Y-123751789D01*
X171496899Y-124001523D01*
X171822791Y-124136845D01*
X172175661Y-124137153D01*
X172501789Y-124002400D01*
X172751523Y-123753101D01*
X172886845Y-123427209D01*
X172887153Y-123074339D01*
X172752400Y-122748211D01*
X172503101Y-122498477D01*
X172177209Y-122363155D01*
X171824339Y-122362847D01*
X171527000Y-122485705D01*
X171527000Y-121651426D01*
X180472649Y-121651426D01*
X180780591Y-122396703D01*
X181350298Y-122967405D01*
X182095036Y-123276647D01*
X182901426Y-123277351D01*
X183646703Y-122969409D01*
X184217405Y-122399702D01*
X184526647Y-121654964D01*
X184527351Y-120848574D01*
X184219409Y-120103297D01*
X183649702Y-119532595D01*
X182904964Y-119223353D01*
X182098574Y-119222649D01*
X181353297Y-119530591D01*
X180782595Y-120100298D01*
X180473353Y-120845036D01*
X180472649Y-121651426D01*
X171527000Y-121651426D01*
X171527000Y-117675661D01*
X175112847Y-117675661D01*
X175247600Y-118001789D01*
X175496899Y-118251523D01*
X175822791Y-118386845D01*
X176175661Y-118387153D01*
X176501789Y-118252400D01*
X176751523Y-118003101D01*
X176886845Y-117677209D01*
X176887153Y-117324339D01*
X176815707Y-117151426D01*
X180472649Y-117151426D01*
X180780591Y-117896703D01*
X181350298Y-118467405D01*
X182095036Y-118776647D01*
X182901426Y-118777351D01*
X183646703Y-118469409D01*
X184217405Y-117899702D01*
X184526647Y-117154964D01*
X184527351Y-116348574D01*
X184219409Y-115603297D01*
X183649702Y-115032595D01*
X182904964Y-114723353D01*
X182098574Y-114722649D01*
X181353297Y-115030591D01*
X180782595Y-115600298D01*
X180473353Y-116345036D01*
X180472649Y-117151426D01*
X176815707Y-117151426D01*
X176752400Y-116998211D01*
X176503101Y-116748477D01*
X176177209Y-116613155D01*
X175824339Y-116612847D01*
X175498211Y-116747600D01*
X175248477Y-116996899D01*
X175113155Y-117322791D01*
X175112847Y-117675661D01*
X171527000Y-117675661D01*
X171527000Y-117000000D01*
X171523394Y-116980833D01*
X171751523Y-116753101D01*
X171886845Y-116427209D01*
X171887153Y-116074339D01*
X171752400Y-115748211D01*
X171503101Y-115498477D01*
X171177209Y-115363155D01*
X170824339Y-115362847D01*
X170498211Y-115497600D01*
X170248477Y-115746899D01*
X170113155Y-116072791D01*
X170112847Y-116425661D01*
X170132407Y-116473000D01*
X163765940Y-116473000D01*
X163652400Y-116198211D01*
X163403101Y-115948477D01*
X163077209Y-115813155D01*
X162724339Y-115812847D01*
X162542279Y-115888072D01*
X162303101Y-115648477D01*
X161977209Y-115513155D01*
X161624339Y-115512847D01*
X161442402Y-115588021D01*
X161303101Y-115448477D01*
X160977209Y-115313155D01*
X160624339Y-115312847D01*
X160298211Y-115447600D01*
X160048477Y-115696899D01*
X159913155Y-116022791D01*
X159912847Y-116375661D01*
X159953067Y-116473000D01*
X159000000Y-116473000D01*
X158808458Y-116509041D01*
X158632538Y-116622242D01*
X158514520Y-116794967D01*
X158473000Y-117000000D01*
X158473000Y-124473000D01*
X153000000Y-124473000D01*
X152808458Y-124509041D01*
X152632538Y-124622242D01*
X152514520Y-124794967D01*
X152473000Y-125000000D01*
X140602000Y-125000000D01*
X140602000Y-122175661D01*
X141312847Y-122175661D01*
X141447600Y-122501789D01*
X141696899Y-122751523D01*
X142022791Y-122886845D01*
X142375661Y-122887153D01*
X142701789Y-122752400D01*
X142951523Y-122503101D01*
X143086845Y-122177209D01*
X143086846Y-122175661D01*
X155512847Y-122175661D01*
X155647600Y-122501789D01*
X155896899Y-122751523D01*
X156222791Y-122886845D01*
X156575661Y-122887153D01*
X156901789Y-122752400D01*
X157151523Y-122503101D01*
X157286845Y-122177209D01*
X157287153Y-121824339D01*
X157152400Y-121498211D01*
X156903101Y-121248477D01*
X156577209Y-121113155D01*
X156224339Y-121112847D01*
X155898211Y-121247600D01*
X155648477Y-121496899D01*
X155513155Y-121822791D01*
X155512847Y-122175661D01*
X143086846Y-122175661D01*
X143087153Y-121824339D01*
X142952400Y-121498211D01*
X142703101Y-121248477D01*
X142377209Y-121113155D01*
X142024339Y-121112847D01*
X141698211Y-121247600D01*
X141448477Y-121496899D01*
X141313155Y-121822791D01*
X141312847Y-122175661D01*
X140602000Y-122175661D01*
X140602000Y-117375661D01*
X150112847Y-117375661D01*
X150247600Y-117701789D01*
X150496899Y-117951523D01*
X150822791Y-118086845D01*
X151175661Y-118087153D01*
X151501789Y-117952400D01*
X151751523Y-117703101D01*
X151886845Y-117377209D01*
X151887153Y-117024339D01*
X151752400Y-116698211D01*
X151503101Y-116448477D01*
X151327741Y-116375661D01*
X156112847Y-116375661D01*
X156247600Y-116701789D01*
X156496899Y-116951523D01*
X156822791Y-117086845D01*
X157175661Y-117087153D01*
X157501789Y-116952400D01*
X157751523Y-116703101D01*
X157886845Y-116377209D01*
X157887153Y-116024339D01*
X157752400Y-115698211D01*
X157503101Y-115448477D01*
X157355374Y-115387135D01*
X157375661Y-115387153D01*
X157701789Y-115252400D01*
X157734401Y-115219845D01*
X157747600Y-115251789D01*
X157996899Y-115501523D01*
X158322791Y-115636845D01*
X158675661Y-115637153D01*
X159001789Y-115502400D01*
X159251523Y-115253101D01*
X159283678Y-115175661D01*
X167052847Y-115175661D01*
X167187600Y-115501789D01*
X167436899Y-115751523D01*
X167762791Y-115886845D01*
X168115661Y-115887153D01*
X168441789Y-115752400D01*
X168691523Y-115503101D01*
X168826845Y-115177209D01*
X168827153Y-114824339D01*
X168692400Y-114498211D01*
X168443101Y-114248477D01*
X168117209Y-114113155D01*
X167764339Y-114112847D01*
X167438211Y-114247600D01*
X167188477Y-114496899D01*
X167053155Y-114822791D01*
X167052847Y-115175661D01*
X159283678Y-115175661D01*
X159386845Y-114927209D01*
X159387098Y-114637119D01*
X159425661Y-114637153D01*
X159751789Y-114502400D01*
X160001523Y-114253101D01*
X160136845Y-113927209D01*
X160136953Y-113802407D01*
X176972735Y-113802407D01*
X177204717Y-114363846D01*
X177633894Y-114793773D01*
X178194928Y-115026735D01*
X178802407Y-115027265D01*
X179363846Y-114795283D01*
X179793773Y-114366106D01*
X180026735Y-113805072D01*
X180027265Y-113197593D01*
X179795283Y-112636154D01*
X179366106Y-112206227D01*
X178805072Y-111973265D01*
X178197593Y-111972735D01*
X177636154Y-112204717D01*
X177206227Y-112633894D01*
X176973265Y-113194928D01*
X176972735Y-113802407D01*
X160136953Y-113802407D01*
X160137153Y-113574339D01*
X160002400Y-113248211D01*
X159753101Y-112998477D01*
X159427209Y-112863155D01*
X159074339Y-112862847D01*
X158839807Y-112959753D01*
X158752400Y-112748211D01*
X158503101Y-112498477D01*
X158187206Y-112367306D01*
X158251523Y-112303101D01*
X158386845Y-111977209D01*
X158387108Y-111675661D01*
X165362847Y-111675661D01*
X165497600Y-112001789D01*
X165746899Y-112251523D01*
X166072791Y-112386845D01*
X166425661Y-112387153D01*
X166489359Y-112360834D01*
X166547600Y-112501789D01*
X166796899Y-112751523D01*
X167122791Y-112886845D01*
X167475661Y-112887153D01*
X167801789Y-112752400D01*
X168051523Y-112503101D01*
X168186845Y-112177209D01*
X168187153Y-111824339D01*
X168052400Y-111498211D01*
X167803101Y-111248477D01*
X167477209Y-111113155D01*
X167124339Y-111112847D01*
X167060641Y-111139166D01*
X167002400Y-110998211D01*
X166753101Y-110748477D01*
X166427209Y-110613155D01*
X166074339Y-110612847D01*
X165748211Y-110747600D01*
X165498477Y-110996899D01*
X165363155Y-111322791D01*
X165362847Y-111675661D01*
X158387108Y-111675661D01*
X158387153Y-111624339D01*
X158252400Y-111298211D01*
X158003101Y-111048477D01*
X157677209Y-110913155D01*
X157324339Y-110912847D01*
X156998211Y-111047600D01*
X156748477Y-111296899D01*
X156613155Y-111622791D01*
X156612847Y-111975661D01*
X156747600Y-112301789D01*
X156996899Y-112551523D01*
X157312794Y-112682694D01*
X157248477Y-112746899D01*
X157113155Y-113072791D01*
X157112847Y-113425661D01*
X157190250Y-113612992D01*
X157024339Y-113612847D01*
X156698211Y-113747600D01*
X156448477Y-113996899D01*
X156313155Y-114322791D01*
X156312847Y-114675661D01*
X156447600Y-115001789D01*
X156696899Y-115251523D01*
X156844626Y-115312865D01*
X156824339Y-115312847D01*
X156498211Y-115447600D01*
X156248477Y-115696899D01*
X156113155Y-116022791D01*
X156112847Y-116375661D01*
X151327741Y-116375661D01*
X151177209Y-116313155D01*
X150824339Y-116312847D01*
X150498211Y-116447600D01*
X150248477Y-116696899D01*
X150113155Y-117022791D01*
X150112847Y-117375661D01*
X140602000Y-117375661D01*
X140602000Y-105540000D01*
X141582157Y-105540000D01*
X141688010Y-106072160D01*
X141989454Y-106523303D01*
X142418527Y-106810000D01*
X141989454Y-107096697D01*
X141688010Y-107547840D01*
X141582157Y-108080000D01*
X141688010Y-108612160D01*
X141989454Y-109063303D01*
X142418527Y-109350000D01*
X141989454Y-109636697D01*
X141688010Y-110087840D01*
X141582157Y-110620000D01*
X141688010Y-111152160D01*
X141989454Y-111603303D01*
X142418527Y-111890000D01*
X141989454Y-112176697D01*
X141688010Y-112627840D01*
X141582157Y-113160000D01*
X141688010Y-113692160D01*
X141989454Y-114143303D01*
X142418527Y-114430000D01*
X141989454Y-114716697D01*
X141688010Y-115167840D01*
X141582157Y-115700000D01*
X141688010Y-116232160D01*
X141989454Y-116683303D01*
X142440597Y-116984747D01*
X142972757Y-117090600D01*
X143027243Y-117090600D01*
X143559403Y-116984747D01*
X144010546Y-116683303D01*
X144270000Y-116295003D01*
X144529454Y-116683303D01*
X144980597Y-116984747D01*
X145512757Y-117090600D01*
X145567243Y-117090600D01*
X146099403Y-116984747D01*
X146550546Y-116683303D01*
X146756105Y-116375661D01*
X147012847Y-116375661D01*
X147147600Y-116701789D01*
X147396899Y-116951523D01*
X147722791Y-117086845D01*
X148075661Y-117087153D01*
X148401789Y-116952400D01*
X148651523Y-116703101D01*
X148786845Y-116377209D01*
X148787153Y-116024339D01*
X148652400Y-115698211D01*
X148403101Y-115448477D01*
X148077209Y-115313155D01*
X147724339Y-115312847D01*
X147398211Y-115447600D01*
X147148477Y-115696899D01*
X147013155Y-116022791D01*
X147012847Y-116375661D01*
X146756105Y-116375661D01*
X146851990Y-116232160D01*
X146957843Y-115700000D01*
X146853546Y-115175661D01*
X153362847Y-115175661D01*
X153497600Y-115501789D01*
X153746899Y-115751523D01*
X154072791Y-115886845D01*
X154425661Y-115887153D01*
X154751789Y-115752400D01*
X155001523Y-115503101D01*
X155136845Y-115177209D01*
X155137153Y-114824339D01*
X155002400Y-114498211D01*
X154753101Y-114248477D01*
X154427209Y-114113155D01*
X154074339Y-114112847D01*
X153748211Y-114247600D01*
X153498477Y-114496899D01*
X153363155Y-114822791D01*
X153362847Y-115175661D01*
X146853546Y-115175661D01*
X146851990Y-115167840D01*
X146550546Y-114716697D01*
X146121473Y-114430000D01*
X146550546Y-114143303D01*
X146851990Y-113692160D01*
X146957843Y-113160000D01*
X146851990Y-112627840D01*
X146550546Y-112176697D01*
X146121473Y-111890000D01*
X146142932Y-111875661D01*
X149912847Y-111875661D01*
X150047600Y-112201789D01*
X150296899Y-112451523D01*
X150622791Y-112586845D01*
X150975661Y-112587153D01*
X151301789Y-112452400D01*
X151551523Y-112203101D01*
X151686845Y-111877209D01*
X151687153Y-111524339D01*
X151552400Y-111198211D01*
X151303101Y-110948477D01*
X150977209Y-110813155D01*
X150624339Y-110812847D01*
X150298211Y-110947600D01*
X150048477Y-111196899D01*
X149913155Y-111522791D01*
X149912847Y-111875661D01*
X146142932Y-111875661D01*
X146550546Y-111603303D01*
X146851990Y-111152160D01*
X146957843Y-110620000D01*
X146929133Y-110475661D01*
X152312847Y-110475661D01*
X152447600Y-110801789D01*
X152696899Y-111051523D01*
X153022791Y-111186845D01*
X153375661Y-111187153D01*
X153701789Y-111052400D01*
X153951523Y-110803101D01*
X154086845Y-110477209D01*
X154087153Y-110124339D01*
X153952400Y-109798211D01*
X153703101Y-109548477D01*
X153377209Y-109413155D01*
X153024339Y-109412847D01*
X152698211Y-109547600D01*
X152448477Y-109796899D01*
X152313155Y-110122791D01*
X152312847Y-110475661D01*
X146929133Y-110475661D01*
X146851990Y-110087840D01*
X146550546Y-109636697D01*
X146121473Y-109350000D01*
X146382390Y-109175661D01*
X153812847Y-109175661D01*
X153947600Y-109501789D01*
X154196899Y-109751523D01*
X154522791Y-109886845D01*
X154875661Y-109887153D01*
X155201789Y-109752400D01*
X155412877Y-109541680D01*
X155412847Y-109575661D01*
X155547600Y-109901789D01*
X155796899Y-110151523D01*
X156122791Y-110286845D01*
X156475661Y-110287153D01*
X156801789Y-110152400D01*
X157051523Y-109903101D01*
X157145964Y-109675661D01*
X164712847Y-109675661D01*
X164847600Y-110001789D01*
X165096899Y-110251523D01*
X165422791Y-110386845D01*
X165775661Y-110387153D01*
X166101789Y-110252400D01*
X166351523Y-110003101D01*
X166486845Y-109677209D01*
X166486846Y-109675661D01*
X175112847Y-109675661D01*
X175247600Y-110001789D01*
X175496899Y-110251523D01*
X175822791Y-110386845D01*
X176175661Y-110387153D01*
X176501789Y-110252400D01*
X176751523Y-110003101D01*
X176834858Y-109802407D01*
X181472735Y-109802407D01*
X181704717Y-110363846D01*
X182133894Y-110793773D01*
X182694928Y-111026735D01*
X183302407Y-111027265D01*
X183863846Y-110795283D01*
X184293773Y-110366106D01*
X184526735Y-109805072D01*
X184527265Y-109197593D01*
X184295283Y-108636154D01*
X183866106Y-108206227D01*
X183305072Y-107973265D01*
X182697593Y-107972735D01*
X182136154Y-108204717D01*
X181706227Y-108633894D01*
X181473265Y-109194928D01*
X181472735Y-109802407D01*
X176834858Y-109802407D01*
X176886845Y-109677209D01*
X176887153Y-109324339D01*
X176752400Y-108998211D01*
X176503101Y-108748477D01*
X176177209Y-108613155D01*
X175824339Y-108612847D01*
X175498211Y-108747600D01*
X175248477Y-108996899D01*
X175113155Y-109322791D01*
X175112847Y-109675661D01*
X166486846Y-109675661D01*
X166487153Y-109324339D01*
X166352400Y-108998211D01*
X166103101Y-108748477D01*
X165777209Y-108613155D01*
X165424339Y-108612847D01*
X165098211Y-108747600D01*
X164848477Y-108996899D01*
X164713155Y-109322791D01*
X164712847Y-109675661D01*
X157145964Y-109675661D01*
X157186845Y-109577209D01*
X157187153Y-109224339D01*
X157052400Y-108898211D01*
X156803101Y-108648477D01*
X156477209Y-108513155D01*
X156124339Y-108512847D01*
X155798211Y-108647600D01*
X155587123Y-108858320D01*
X155587153Y-108824339D01*
X155452400Y-108498211D01*
X155203101Y-108248477D01*
X154877209Y-108113155D01*
X154524339Y-108112847D01*
X154198211Y-108247600D01*
X153948477Y-108496899D01*
X153813155Y-108822791D01*
X153812847Y-109175661D01*
X146382390Y-109175661D01*
X146550546Y-109063303D01*
X146851990Y-108612160D01*
X146957843Y-108080000D01*
X146851990Y-107547840D01*
X146550546Y-107096697D01*
X146121473Y-106810000D01*
X146550546Y-106523303D01*
X146582379Y-106475661D01*
X158112847Y-106475661D01*
X158247600Y-106801789D01*
X158496899Y-107051523D01*
X158822791Y-107186845D01*
X159175661Y-107187153D01*
X159501789Y-107052400D01*
X159751523Y-106803101D01*
X159886845Y-106477209D01*
X159887153Y-106124339D01*
X159754134Y-105802407D01*
X178222735Y-105802407D01*
X178454717Y-106363846D01*
X178883894Y-106793773D01*
X179444928Y-107026735D01*
X180052407Y-107027265D01*
X180613846Y-106795283D01*
X181043773Y-106366106D01*
X181276735Y-105805072D01*
X181277265Y-105197593D01*
X181045283Y-104636154D01*
X180616106Y-104206227D01*
X180055072Y-103973265D01*
X179447593Y-103972735D01*
X178886154Y-104204717D01*
X178456227Y-104633894D01*
X178223265Y-105194928D01*
X178222735Y-105802407D01*
X159754134Y-105802407D01*
X159752400Y-105798211D01*
X159503101Y-105548477D01*
X159177209Y-105413155D01*
X158824339Y-105412847D01*
X158498211Y-105547600D01*
X158248477Y-105796899D01*
X158113155Y-106122791D01*
X158112847Y-106475661D01*
X146582379Y-106475661D01*
X146851990Y-106072160D01*
X146957843Y-105540000D01*
X146851990Y-105007840D01*
X146830489Y-104975661D01*
X152112847Y-104975661D01*
X152247600Y-105301789D01*
X152496899Y-105551523D01*
X152822791Y-105686845D01*
X153175661Y-105687153D01*
X153501789Y-105552400D01*
X153751523Y-105303101D01*
X153886845Y-104977209D01*
X153887153Y-104624339D01*
X153752400Y-104298211D01*
X153503101Y-104048477D01*
X153327741Y-103975661D01*
X154112847Y-103975661D01*
X154247600Y-104301789D01*
X154496899Y-104551523D01*
X154822791Y-104686845D01*
X155175661Y-104687153D01*
X155501789Y-104552400D01*
X155751523Y-104303101D01*
X155886845Y-103977209D01*
X155886846Y-103975661D01*
X162112847Y-103975661D01*
X162247600Y-104301789D01*
X162496899Y-104551523D01*
X162822791Y-104686845D01*
X163175661Y-104687153D01*
X163501789Y-104552400D01*
X163751523Y-104303101D01*
X163886845Y-103977209D01*
X163887153Y-103624339D01*
X163752400Y-103298211D01*
X163503101Y-103048477D01*
X163177209Y-102913155D01*
X162824339Y-102912847D01*
X162498211Y-103047600D01*
X162248477Y-103296899D01*
X162113155Y-103622791D01*
X162112847Y-103975661D01*
X155886846Y-103975661D01*
X155887153Y-103624339D01*
X155752400Y-103298211D01*
X155503101Y-103048477D01*
X155177209Y-102913155D01*
X154824339Y-102912847D01*
X154498211Y-103047600D01*
X154248477Y-103296899D01*
X154113155Y-103622791D01*
X154112847Y-103975661D01*
X153327741Y-103975661D01*
X153177209Y-103913155D01*
X152824339Y-103912847D01*
X152498211Y-104047600D01*
X152248477Y-104296899D01*
X152113155Y-104622791D01*
X152112847Y-104975661D01*
X146830489Y-104975661D01*
X146550546Y-104556697D01*
X146121473Y-104270000D01*
X146550546Y-103983303D01*
X146851990Y-103532160D01*
X146957843Y-103000000D01*
X146893329Y-102675661D01*
X157112847Y-102675661D01*
X157247600Y-103001789D01*
X157496899Y-103251523D01*
X157822791Y-103386845D01*
X158175661Y-103387153D01*
X158501789Y-103252400D01*
X158751523Y-103003101D01*
X158886845Y-102677209D01*
X158887153Y-102324339D01*
X158752400Y-101998211D01*
X158503101Y-101748477D01*
X158177209Y-101613155D01*
X157824339Y-101612847D01*
X157498211Y-101747600D01*
X157248477Y-101996899D01*
X157113155Y-102322791D01*
X157112847Y-102675661D01*
X146893329Y-102675661D01*
X146851990Y-102467840D01*
X146550546Y-102016697D01*
X146099403Y-101715253D01*
X145567243Y-101609400D01*
X145512757Y-101609400D01*
X144980597Y-101715253D01*
X144529454Y-102016697D01*
X144400924Y-102209056D01*
X144400924Y-102136400D01*
X144364177Y-101941106D01*
X144248758Y-101761740D01*
X144072649Y-101641410D01*
X143863600Y-101599076D01*
X142136400Y-101599076D01*
X141941106Y-101635823D01*
X141761740Y-101751242D01*
X141641410Y-101927351D01*
X141599076Y-102136400D01*
X141599076Y-103863600D01*
X141635823Y-104058894D01*
X141751242Y-104238260D01*
X141927351Y-104358590D01*
X142136400Y-104400924D01*
X142222585Y-104400924D01*
X141989454Y-104556697D01*
X141688010Y-105007840D01*
X141582157Y-105540000D01*
X140602000Y-105540000D01*
X140602000Y-100602000D01*
X181281763Y-100602000D01*
X180782595Y-101100298D01*
X180782595Y-101100298D01*
G37*
X180782595Y-101100298D02*
X180473353Y-101845036D01*
X180472649Y-102651426D01*
X180780591Y-103396703D01*
X181350298Y-103967405D01*
X182095036Y-104276647D01*
X182901426Y-104277351D01*
X183646703Y-103969409D01*
X184217405Y-103399702D01*
X184526647Y-102654964D01*
X184527351Y-101848574D01*
X184219409Y-101103297D01*
X183718986Y-100602000D01*
X189398000Y-100602000D01*
X189398000Y-149398000D01*
X140602000Y-149398000D01*
X140602000Y-148175661D01*
X161612847Y-148175661D01*
X161747600Y-148501789D01*
X161996899Y-148751523D01*
X162322791Y-148886845D01*
X162675661Y-148887153D01*
X163001789Y-148752400D01*
X163251523Y-148503101D01*
X163386845Y-148177209D01*
X163387153Y-147824339D01*
X163252400Y-147498211D01*
X163003101Y-147248477D01*
X162677209Y-147113155D01*
X162324339Y-147112847D01*
X161998211Y-147247600D01*
X161748477Y-147496899D01*
X161613155Y-147822791D01*
X161612847Y-148175661D01*
X140602000Y-148175661D01*
X140602000Y-143675661D01*
X162312847Y-143675661D01*
X162447600Y-144001789D01*
X162696899Y-144251523D01*
X163022791Y-144386845D01*
X163375661Y-144387153D01*
X163652656Y-144272701D01*
X176022762Y-144272701D01*
X176231956Y-144778989D01*
X176618974Y-145166683D01*
X177124896Y-145376760D01*
X177672701Y-145377238D01*
X178178989Y-145168044D01*
X178566683Y-144781026D01*
X178776760Y-144275104D01*
X178776762Y-144272701D01*
X183022762Y-144272701D01*
X183231956Y-144778989D01*
X183618974Y-145166683D01*
X184124896Y-145376760D01*
X184672701Y-145377238D01*
X185178989Y-145168044D01*
X185566683Y-144781026D01*
X185776760Y-144275104D01*
X185777238Y-143727299D01*
X185568044Y-143221011D01*
X185181026Y-142833317D01*
X184675104Y-142623240D01*
X184127299Y-142622762D01*
X183621011Y-142831956D01*
X183233317Y-143218974D01*
X183023240Y-143724896D01*
X183022762Y-144272701D01*
X178776762Y-144272701D01*
X178777238Y-143727299D01*
X178568044Y-143221011D01*
X178181026Y-142833317D01*
X177675104Y-142623240D01*
X177127299Y-142622762D01*
X176621011Y-142831956D01*
X176233317Y-143218974D01*
X176023240Y-143724896D01*
X176022762Y-144272701D01*
X163652656Y-144272701D01*
X163701789Y-144252400D01*
X163951523Y-144003101D01*
X164086845Y-143677209D01*
X164087153Y-143324339D01*
X163952400Y-142998211D01*
X163703101Y-142748477D01*
X163377209Y-142613155D01*
X163024339Y-142612847D01*
X162698211Y-142747600D01*
X162448477Y-142996899D01*
X162313155Y-143322791D01*
X162312847Y-143675661D01*
X140602000Y-143675661D01*
X140602000Y-140575661D01*
X148112847Y-140575661D01*
X148247600Y-140901789D01*
X148496899Y-141151523D01*
X148822791Y-141286845D01*
X149175661Y-141287153D01*
X149501789Y-141152400D01*
X149751523Y-140903101D01*
X149845964Y-140675661D01*
X156612847Y-140675661D01*
X156747600Y-141001789D01*
X156996899Y-141251523D01*
X157322791Y-141386845D01*
X157675661Y-141387153D01*
X158001789Y-141252400D01*
X158251523Y-141003101D01*
X158386845Y-140677209D01*
X158386846Y-140675661D01*
X163112847Y-140675661D01*
X163247600Y-141001789D01*
X163496899Y-141251523D01*
X163822791Y-141386845D01*
X164175661Y-141387153D01*
X164501789Y-141252400D01*
X164751523Y-141003101D01*
X164886845Y-140677209D01*
X164887020Y-140475661D01*
X182812847Y-140475661D01*
X182947600Y-140801789D01*
X183196899Y-141051523D01*
X183522791Y-141186845D01*
X183875661Y-141187153D01*
X184201789Y-141052400D01*
X184451523Y-140803101D01*
X184586845Y-140477209D01*
X184587153Y-140124339D01*
X184452400Y-139798211D01*
X184203101Y-139548477D01*
X183877209Y-139413155D01*
X183524339Y-139412847D01*
X183198211Y-139547600D01*
X182948477Y-139796899D01*
X182813155Y-140122791D01*
X182812847Y-140475661D01*
X164887020Y-140475661D01*
X164887153Y-140324339D01*
X164752400Y-139998211D01*
X164503101Y-139748477D01*
X164177209Y-139613155D01*
X163824339Y-139612847D01*
X163498211Y-139747600D01*
X163248477Y-139996899D01*
X163113155Y-140322791D01*
X163112847Y-140675661D01*
X158386846Y-140675661D01*
X158387153Y-140324339D01*
X158252400Y-139998211D01*
X158003101Y-139748477D01*
X157677209Y-139613155D01*
X157324339Y-139612847D01*
X156998211Y-139747600D01*
X156748477Y-139996899D01*
X156613155Y-140322791D01*
X156612847Y-140675661D01*
X149845964Y-140675661D01*
X149886845Y-140577209D01*
X149887153Y-140224339D01*
X149752400Y-139898211D01*
X149503101Y-139648477D01*
X149177209Y-139513155D01*
X148824339Y-139512847D01*
X148498211Y-139647600D01*
X148248477Y-139896899D01*
X148113155Y-140222791D01*
X148112847Y-140575661D01*
X140602000Y-140575661D01*
X140602000Y-135775661D01*
X155112847Y-135775661D01*
X155247600Y-136101789D01*
X155496899Y-136351523D01*
X155822791Y-136486845D01*
X156175661Y-136487153D01*
X156501789Y-136352400D01*
X156751523Y-136103101D01*
X156825202Y-135925661D01*
X170862847Y-135925661D01*
X170997600Y-136251789D01*
X171246899Y-136501523D01*
X171572791Y-136636845D01*
X171925661Y-136637153D01*
X172251789Y-136502400D01*
X172501523Y-136253101D01*
X172543742Y-136151426D01*
X180472649Y-136151426D01*
X180780591Y-136896703D01*
X181350298Y-137467405D01*
X182095036Y-137776647D01*
X182901426Y-137777351D01*
X183646703Y-137469409D01*
X184217405Y-136899702D01*
X184526647Y-136154964D01*
X184527351Y-135348574D01*
X184219409Y-134603297D01*
X183649702Y-134032595D01*
X182904964Y-133723353D01*
X182098574Y-133722649D01*
X181353297Y-134030591D01*
X180782595Y-134600298D01*
X180473353Y-135345036D01*
X180472649Y-136151426D01*
X172543742Y-136151426D01*
X172636845Y-135927209D01*
X172637153Y-135574339D01*
X172502400Y-135248211D01*
X172253101Y-134998477D01*
X171927209Y-134863155D01*
X171574339Y-134862847D01*
X171248211Y-134997600D01*
X170998477Y-135246899D01*
X170863155Y-135572791D01*
X170862847Y-135925661D01*
X156825202Y-135925661D01*
X156886845Y-135777209D01*
X156887153Y-135424339D01*
X156752400Y-135098211D01*
X156503101Y-134848477D01*
X156177209Y-134713155D01*
X155824339Y-134712847D01*
X155498211Y-134847600D01*
X155248477Y-135096899D01*
X155113155Y-135422791D01*
X155112847Y-135775661D01*
X140602000Y-135775661D01*
X140602000Y-134475661D01*
X144412847Y-134475661D01*
X144547600Y-134801789D01*
X144796899Y-135051523D01*
X145122791Y-135186845D01*
X145475661Y-135187153D01*
X145801789Y-135052400D01*
X146051523Y-134803101D01*
X146186845Y-134477209D01*
X146187153Y-134124339D01*
X146052400Y-133798211D01*
X145803101Y-133548477D01*
X145477209Y-133413155D01*
X145124339Y-133412847D01*
X144798211Y-133547600D01*
X144548477Y-133796899D01*
X144413155Y-134122791D01*
X144412847Y-134475661D01*
X140602000Y-134475661D01*
X140602000Y-133075661D01*
X143112847Y-133075661D01*
X143247600Y-133401789D01*
X143496899Y-133651523D01*
X143822791Y-133786845D01*
X144175661Y-133787153D01*
X144501789Y-133652400D01*
X144751523Y-133403101D01*
X144886845Y-133077209D01*
X144887084Y-132802407D01*
X176972735Y-132802407D01*
X177204717Y-133363846D01*
X177633894Y-133793773D01*
X178194928Y-134026735D01*
X178802407Y-134027265D01*
X179363846Y-133795283D01*
X179793773Y-133366106D01*
X180026735Y-132805072D01*
X180027265Y-132197593D01*
X179795283Y-131636154D01*
X179366106Y-131206227D01*
X178805072Y-130973265D01*
X178197593Y-130972735D01*
X177636154Y-131204717D01*
X177206227Y-131633894D01*
X176973265Y-132194928D01*
X176972735Y-132802407D01*
X144887084Y-132802407D01*
X144887153Y-132724339D01*
X144752400Y-132398211D01*
X144503101Y-132148477D01*
X144177209Y-132013155D01*
X143824339Y-132012847D01*
X143498211Y-132147600D01*
X143248477Y-132396899D01*
X143113155Y-132722791D01*
X143112847Y-133075661D01*
X140602000Y-133075661D01*
X140602000Y-131475661D01*
X150112847Y-131475661D01*
X150247600Y-131801789D01*
X150496899Y-132051523D01*
X150822791Y-132186845D01*
X151175661Y-132187153D01*
X151501789Y-132052400D01*
X151751523Y-131803101D01*
X151886845Y-131477209D01*
X151887153Y-131124339D01*
X151752400Y-130798211D01*
X151503101Y-130548477D01*
X151177209Y-130413155D01*
X150824339Y-130412847D01*
X150498211Y-130547600D01*
X150248477Y-130796899D01*
X150113155Y-131122791D01*
X150112847Y-131475661D01*
X140602000Y-131475661D01*
X140602000Y-125000000D01*
X152473000Y-125000000D01*
X152473000Y-132000000D01*
X152509041Y-132191542D01*
X152622242Y-132367462D01*
X152794967Y-132485480D01*
X153000000Y-132527000D01*
X164000000Y-132527000D01*
X164191542Y-132490959D01*
X164367462Y-132377758D01*
X164485480Y-132205033D01*
X164527000Y-132000000D01*
X164527000Y-130925661D01*
X170862847Y-130925661D01*
X170997600Y-131251789D01*
X171246899Y-131501523D01*
X171572791Y-131636845D01*
X171925661Y-131637153D01*
X172251789Y-131502400D01*
X172501523Y-131253101D01*
X172636845Y-130927209D01*
X172637153Y-130574339D01*
X172502400Y-130248211D01*
X172253101Y-129998477D01*
X171927209Y-129863155D01*
X171574339Y-129862847D01*
X171248211Y-129997600D01*
X170998477Y-130246899D01*
X170863155Y-130572791D01*
X170862847Y-130925661D01*
X164527000Y-130925661D01*
X164527000Y-129425661D01*
X165362847Y-129425661D01*
X165497600Y-129751789D01*
X165746899Y-130001523D01*
X166072791Y-130136845D01*
X166425661Y-130137153D01*
X166751789Y-130002400D01*
X167001523Y-129753101D01*
X167136845Y-129427209D01*
X167137153Y-129074339D01*
X167002400Y-128748211D01*
X166753101Y-128498477D01*
X166577741Y-128425661D01*
X170862847Y-128425661D01*
X170997600Y-128751789D01*
X171246899Y-129001523D01*
X171572791Y-129136845D01*
X171925661Y-129137153D01*
X172251789Y-129002400D01*
X172452130Y-128802407D01*
X181472735Y-128802407D01*
X181704717Y-129363846D01*
X182133894Y-129793773D01*
X182694928Y-130026735D01*
X183302407Y-130027265D01*
X183863846Y-129795283D01*
X184293773Y-129366106D01*
X184526735Y-128805072D01*
X184527265Y-128197593D01*
X184295283Y-127636154D01*
X183866106Y-127206227D01*
X183305072Y-126973265D01*
X182697593Y-126972735D01*
X182136154Y-127204717D01*
X181706227Y-127633894D01*
X181473265Y-128194928D01*
X181472735Y-128802407D01*
X172452130Y-128802407D01*
X172501523Y-128753101D01*
X172636845Y-128427209D01*
X172637153Y-128074339D01*
X172502400Y-127748211D01*
X172253101Y-127498477D01*
X171927209Y-127363155D01*
X171574339Y-127362847D01*
X171248211Y-127497600D01*
X170998477Y-127746899D01*
X170863155Y-128072791D01*
X170862847Y-128425661D01*
X166577741Y-128425661D01*
X166427209Y-128363155D01*
X166074339Y-128362847D01*
X165748211Y-128497600D01*
X165498477Y-128746899D01*
X165363155Y-129072791D01*
X165362847Y-129425661D01*
X164527000Y-129425661D01*
X164527000Y-125675661D01*
X166412847Y-125675661D01*
X166547600Y-126001789D01*
X166796899Y-126251523D01*
X167122791Y-126386845D01*
X167475661Y-126387153D01*
X167801789Y-126252400D01*
X168051523Y-126003101D01*
X168186845Y-125677209D01*
X168187153Y-125324339D01*
X168052400Y-124998211D01*
X167856938Y-124802407D01*
X178222735Y-124802407D01*
X178454717Y-125363846D01*
X178883894Y-125793773D01*
X179444928Y-126026735D01*
X180052407Y-126027265D01*
X180613846Y-125795283D01*
X181043773Y-125366106D01*
X181276735Y-124805072D01*
X181277265Y-124197593D01*
X181045283Y-123636154D01*
X180616106Y-123206227D01*
X180055072Y-122973265D01*
X179447593Y-122972735D01*
X178886154Y-123204717D01*
X178456227Y-123633894D01*
X178223265Y-124194928D01*
X178222735Y-124802407D01*
X167856938Y-124802407D01*
X167803101Y-124748477D01*
X167477209Y-124613155D01*
X167124339Y-124612847D01*
X166798211Y-124747600D01*
X166548477Y-124996899D01*
X166413155Y-125322791D01*
X166412847Y-125675661D01*
X164527000Y-125675661D01*
X164527000Y-123527000D01*
X171000000Y-123527000D01*
X171143558Y-123499988D01*
X171247600Y-123751789D01*
X171496899Y-124001523D01*
X171822791Y-124136845D01*
X172175661Y-124137153D01*
X172501789Y-124002400D01*
X172751523Y-123753101D01*
X172886845Y-123427209D01*
X172887153Y-123074339D01*
X172752400Y-122748211D01*
X172503101Y-122498477D01*
X172177209Y-122363155D01*
X171824339Y-122362847D01*
X171527000Y-122485705D01*
X171527000Y-121651426D01*
X180472649Y-121651426D01*
X180780591Y-122396703D01*
X181350298Y-122967405D01*
X182095036Y-123276647D01*
X182901426Y-123277351D01*
X183646703Y-122969409D01*
X184217405Y-122399702D01*
X184526647Y-121654964D01*
X184527351Y-120848574D01*
X184219409Y-120103297D01*
X183649702Y-119532595D01*
X182904964Y-119223353D01*
X182098574Y-119222649D01*
X181353297Y-119530591D01*
X180782595Y-120100298D01*
X180473353Y-120845036D01*
X180472649Y-121651426D01*
X171527000Y-121651426D01*
X171527000Y-117675661D01*
X175112847Y-117675661D01*
X175247600Y-118001789D01*
X175496899Y-118251523D01*
X175822791Y-118386845D01*
X176175661Y-118387153D01*
X176501789Y-118252400D01*
X176751523Y-118003101D01*
X176886845Y-117677209D01*
X176887153Y-117324339D01*
X176815707Y-117151426D01*
X180472649Y-117151426D01*
X180780591Y-117896703D01*
X181350298Y-118467405D01*
X182095036Y-118776647D01*
X182901426Y-118777351D01*
X183646703Y-118469409D01*
X184217405Y-117899702D01*
X184526647Y-117154964D01*
X184527351Y-116348574D01*
X184219409Y-115603297D01*
X183649702Y-115032595D01*
X182904964Y-114723353D01*
X182098574Y-114722649D01*
X181353297Y-115030591D01*
X180782595Y-115600298D01*
X180473353Y-116345036D01*
X180472649Y-117151426D01*
X176815707Y-117151426D01*
X176752400Y-116998211D01*
X176503101Y-116748477D01*
X176177209Y-116613155D01*
X175824339Y-116612847D01*
X175498211Y-116747600D01*
X175248477Y-116996899D01*
X175113155Y-117322791D01*
X175112847Y-117675661D01*
X171527000Y-117675661D01*
X171527000Y-117000000D01*
X171523394Y-116980833D01*
X171751523Y-116753101D01*
X171886845Y-116427209D01*
X171887153Y-116074339D01*
X171752400Y-115748211D01*
X171503101Y-115498477D01*
X171177209Y-115363155D01*
X170824339Y-115362847D01*
X170498211Y-115497600D01*
X170248477Y-115746899D01*
X170113155Y-116072791D01*
X170112847Y-116425661D01*
X170132407Y-116473000D01*
X163765940Y-116473000D01*
X163652400Y-116198211D01*
X163403101Y-115948477D01*
X163077209Y-115813155D01*
X162724339Y-115812847D01*
X162542279Y-115888072D01*
X162303101Y-115648477D01*
X161977209Y-115513155D01*
X161624339Y-115512847D01*
X161442402Y-115588021D01*
X161303101Y-115448477D01*
X160977209Y-115313155D01*
X160624339Y-115312847D01*
X160298211Y-115447600D01*
X160048477Y-115696899D01*
X159913155Y-116022791D01*
X159912847Y-116375661D01*
X159953067Y-116473000D01*
X159000000Y-116473000D01*
X158808458Y-116509041D01*
X158632538Y-116622242D01*
X158514520Y-116794967D01*
X158473000Y-117000000D01*
X158473000Y-124473000D01*
X153000000Y-124473000D01*
X152808458Y-124509041D01*
X152632538Y-124622242D01*
X152514520Y-124794967D01*
X152473000Y-125000000D01*
X140602000Y-125000000D01*
X140602000Y-122175661D01*
X141312847Y-122175661D01*
X141447600Y-122501789D01*
X141696899Y-122751523D01*
X142022791Y-122886845D01*
X142375661Y-122887153D01*
X142701789Y-122752400D01*
X142951523Y-122503101D01*
X143086845Y-122177209D01*
X143086846Y-122175661D01*
X155512847Y-122175661D01*
X155647600Y-122501789D01*
X155896899Y-122751523D01*
X156222791Y-122886845D01*
X156575661Y-122887153D01*
X156901789Y-122752400D01*
X157151523Y-122503101D01*
X157286845Y-122177209D01*
X157287153Y-121824339D01*
X157152400Y-121498211D01*
X156903101Y-121248477D01*
X156577209Y-121113155D01*
X156224339Y-121112847D01*
X155898211Y-121247600D01*
X155648477Y-121496899D01*
X155513155Y-121822791D01*
X155512847Y-122175661D01*
X143086846Y-122175661D01*
X143087153Y-121824339D01*
X142952400Y-121498211D01*
X142703101Y-121248477D01*
X142377209Y-121113155D01*
X142024339Y-121112847D01*
X141698211Y-121247600D01*
X141448477Y-121496899D01*
X141313155Y-121822791D01*
X141312847Y-122175661D01*
X140602000Y-122175661D01*
X140602000Y-117375661D01*
X150112847Y-117375661D01*
X150247600Y-117701789D01*
X150496899Y-117951523D01*
X150822791Y-118086845D01*
X151175661Y-118087153D01*
X151501789Y-117952400D01*
X151751523Y-117703101D01*
X151886845Y-117377209D01*
X151887153Y-117024339D01*
X151752400Y-116698211D01*
X151503101Y-116448477D01*
X151327741Y-116375661D01*
X156112847Y-116375661D01*
X156247600Y-116701789D01*
X156496899Y-116951523D01*
X156822791Y-117086845D01*
X157175661Y-117087153D01*
X157501789Y-116952400D01*
X157751523Y-116703101D01*
X157886845Y-116377209D01*
X157887153Y-116024339D01*
X157752400Y-115698211D01*
X157503101Y-115448477D01*
X157355374Y-115387135D01*
X157375661Y-115387153D01*
X157701789Y-115252400D01*
X157734401Y-115219845D01*
X157747600Y-115251789D01*
X157996899Y-115501523D01*
X158322791Y-115636845D01*
X158675661Y-115637153D01*
X159001789Y-115502400D01*
X159251523Y-115253101D01*
X159283678Y-115175661D01*
X167052847Y-115175661D01*
X167187600Y-115501789D01*
X167436899Y-115751523D01*
X167762791Y-115886845D01*
X168115661Y-115887153D01*
X168441789Y-115752400D01*
X168691523Y-115503101D01*
X168826845Y-115177209D01*
X168827153Y-114824339D01*
X168692400Y-114498211D01*
X168443101Y-114248477D01*
X168117209Y-114113155D01*
X167764339Y-114112847D01*
X167438211Y-114247600D01*
X167188477Y-114496899D01*
X167053155Y-114822791D01*
X167052847Y-115175661D01*
X159283678Y-115175661D01*
X159386845Y-114927209D01*
X159387098Y-114637119D01*
X159425661Y-114637153D01*
X159751789Y-114502400D01*
X160001523Y-114253101D01*
X160136845Y-113927209D01*
X160136953Y-113802407D01*
X176972735Y-113802407D01*
X177204717Y-114363846D01*
X177633894Y-114793773D01*
X178194928Y-115026735D01*
X178802407Y-115027265D01*
X179363846Y-114795283D01*
X179793773Y-114366106D01*
X180026735Y-113805072D01*
X180027265Y-113197593D01*
X179795283Y-112636154D01*
X179366106Y-112206227D01*
X178805072Y-111973265D01*
X178197593Y-111972735D01*
X177636154Y-112204717D01*
X177206227Y-112633894D01*
X176973265Y-113194928D01*
X176972735Y-113802407D01*
X160136953Y-113802407D01*
X160137153Y-113574339D01*
X160002400Y-113248211D01*
X159753101Y-112998477D01*
X159427209Y-112863155D01*
X159074339Y-112862847D01*
X158839807Y-112959753D01*
X158752400Y-112748211D01*
X158503101Y-112498477D01*
X158187206Y-112367306D01*
X158251523Y-112303101D01*
X158386845Y-111977209D01*
X158387108Y-111675661D01*
X165362847Y-111675661D01*
X165497600Y-112001789D01*
X165746899Y-112251523D01*
X166072791Y-112386845D01*
X166425661Y-112387153D01*
X166489359Y-112360834D01*
X166547600Y-112501789D01*
X166796899Y-112751523D01*
X167122791Y-112886845D01*
X167475661Y-112887153D01*
X167801789Y-112752400D01*
X168051523Y-112503101D01*
X168186845Y-112177209D01*
X168187153Y-111824339D01*
X168052400Y-111498211D01*
X167803101Y-111248477D01*
X167477209Y-111113155D01*
X167124339Y-111112847D01*
X167060641Y-111139166D01*
X167002400Y-110998211D01*
X166753101Y-110748477D01*
X166427209Y-110613155D01*
X166074339Y-110612847D01*
X165748211Y-110747600D01*
X165498477Y-110996899D01*
X165363155Y-111322791D01*
X165362847Y-111675661D01*
X158387108Y-111675661D01*
X158387153Y-111624339D01*
X158252400Y-111298211D01*
X158003101Y-111048477D01*
X157677209Y-110913155D01*
X157324339Y-110912847D01*
X156998211Y-111047600D01*
X156748477Y-111296899D01*
X156613155Y-111622791D01*
X156612847Y-111975661D01*
X156747600Y-112301789D01*
X156996899Y-112551523D01*
X157312794Y-112682694D01*
X157248477Y-112746899D01*
X157113155Y-113072791D01*
X157112847Y-113425661D01*
X157190250Y-113612992D01*
X157024339Y-113612847D01*
X156698211Y-113747600D01*
X156448477Y-113996899D01*
X156313155Y-114322791D01*
X156312847Y-114675661D01*
X156447600Y-115001789D01*
X156696899Y-115251523D01*
X156844626Y-115312865D01*
X156824339Y-115312847D01*
X156498211Y-115447600D01*
X156248477Y-115696899D01*
X156113155Y-116022791D01*
X156112847Y-116375661D01*
X151327741Y-116375661D01*
X151177209Y-116313155D01*
X150824339Y-116312847D01*
X150498211Y-116447600D01*
X150248477Y-116696899D01*
X150113155Y-117022791D01*
X150112847Y-117375661D01*
X140602000Y-117375661D01*
X140602000Y-105540000D01*
X141582157Y-105540000D01*
X141688010Y-106072160D01*
X141989454Y-106523303D01*
X142418527Y-106810000D01*
X141989454Y-107096697D01*
X141688010Y-107547840D01*
X141582157Y-108080000D01*
X141688010Y-108612160D01*
X141989454Y-109063303D01*
X142418527Y-109350000D01*
X141989454Y-109636697D01*
X141688010Y-110087840D01*
X141582157Y-110620000D01*
X141688010Y-111152160D01*
X141989454Y-111603303D01*
X142418527Y-111890000D01*
X141989454Y-112176697D01*
X141688010Y-112627840D01*
X141582157Y-113160000D01*
X141688010Y-113692160D01*
X141989454Y-114143303D01*
X142418527Y-114430000D01*
X141989454Y-114716697D01*
X141688010Y-115167840D01*
X141582157Y-115700000D01*
X141688010Y-116232160D01*
X141989454Y-116683303D01*
X142440597Y-116984747D01*
X142972757Y-117090600D01*
X143027243Y-117090600D01*
X143559403Y-116984747D01*
X144010546Y-116683303D01*
X144270000Y-116295003D01*
X144529454Y-116683303D01*
X144980597Y-116984747D01*
X145512757Y-117090600D01*
X145567243Y-117090600D01*
X146099403Y-116984747D01*
X146550546Y-116683303D01*
X146756105Y-116375661D01*
X147012847Y-116375661D01*
X147147600Y-116701789D01*
X147396899Y-116951523D01*
X147722791Y-117086845D01*
X148075661Y-117087153D01*
X148401789Y-116952400D01*
X148651523Y-116703101D01*
X148786845Y-116377209D01*
X148787153Y-116024339D01*
X148652400Y-115698211D01*
X148403101Y-115448477D01*
X148077209Y-115313155D01*
X147724339Y-115312847D01*
X147398211Y-115447600D01*
X147148477Y-115696899D01*
X147013155Y-116022791D01*
X147012847Y-116375661D01*
X146756105Y-116375661D01*
X146851990Y-116232160D01*
X146957843Y-115700000D01*
X146853546Y-115175661D01*
X153362847Y-115175661D01*
X153497600Y-115501789D01*
X153746899Y-115751523D01*
X154072791Y-115886845D01*
X154425661Y-115887153D01*
X154751789Y-115752400D01*
X155001523Y-115503101D01*
X155136845Y-115177209D01*
X155137153Y-114824339D01*
X155002400Y-114498211D01*
X154753101Y-114248477D01*
X154427209Y-114113155D01*
X154074339Y-114112847D01*
X153748211Y-114247600D01*
X153498477Y-114496899D01*
X153363155Y-114822791D01*
X153362847Y-115175661D01*
X146853546Y-115175661D01*
X146851990Y-115167840D01*
X146550546Y-114716697D01*
X146121473Y-114430000D01*
X146550546Y-114143303D01*
X146851990Y-113692160D01*
X146957843Y-113160000D01*
X146851990Y-112627840D01*
X146550546Y-112176697D01*
X146121473Y-111890000D01*
X146142932Y-111875661D01*
X149912847Y-111875661D01*
X150047600Y-112201789D01*
X150296899Y-112451523D01*
X150622791Y-112586845D01*
X150975661Y-112587153D01*
X151301789Y-112452400D01*
X151551523Y-112203101D01*
X151686845Y-111877209D01*
X151687153Y-111524339D01*
X151552400Y-111198211D01*
X151303101Y-110948477D01*
X150977209Y-110813155D01*
X150624339Y-110812847D01*
X150298211Y-110947600D01*
X150048477Y-111196899D01*
X149913155Y-111522791D01*
X149912847Y-111875661D01*
X146142932Y-111875661D01*
X146550546Y-111603303D01*
X146851990Y-111152160D01*
X146957843Y-110620000D01*
X146929133Y-110475661D01*
X152312847Y-110475661D01*
X152447600Y-110801789D01*
X152696899Y-111051523D01*
X153022791Y-111186845D01*
X153375661Y-111187153D01*
X153701789Y-111052400D01*
X153951523Y-110803101D01*
X154086845Y-110477209D01*
X154087153Y-110124339D01*
X153952400Y-109798211D01*
X153703101Y-109548477D01*
X153377209Y-109413155D01*
X153024339Y-109412847D01*
X152698211Y-109547600D01*
X152448477Y-109796899D01*
X152313155Y-110122791D01*
X152312847Y-110475661D01*
X146929133Y-110475661D01*
X146851990Y-110087840D01*
X146550546Y-109636697D01*
X146121473Y-109350000D01*
X146382390Y-109175661D01*
X153812847Y-109175661D01*
X153947600Y-109501789D01*
X154196899Y-109751523D01*
X154522791Y-109886845D01*
X154875661Y-109887153D01*
X155201789Y-109752400D01*
X155412877Y-109541680D01*
X155412847Y-109575661D01*
X155547600Y-109901789D01*
X155796899Y-110151523D01*
X156122791Y-110286845D01*
X156475661Y-110287153D01*
X156801789Y-110152400D01*
X157051523Y-109903101D01*
X157145964Y-109675661D01*
X164712847Y-109675661D01*
X164847600Y-110001789D01*
X165096899Y-110251523D01*
X165422791Y-110386845D01*
X165775661Y-110387153D01*
X166101789Y-110252400D01*
X166351523Y-110003101D01*
X166486845Y-109677209D01*
X166486846Y-109675661D01*
X175112847Y-109675661D01*
X175247600Y-110001789D01*
X175496899Y-110251523D01*
X175822791Y-110386845D01*
X176175661Y-110387153D01*
X176501789Y-110252400D01*
X176751523Y-110003101D01*
X176834858Y-109802407D01*
X181472735Y-109802407D01*
X181704717Y-110363846D01*
X182133894Y-110793773D01*
X182694928Y-111026735D01*
X183302407Y-111027265D01*
X183863846Y-110795283D01*
X184293773Y-110366106D01*
X184526735Y-109805072D01*
X184527265Y-109197593D01*
X184295283Y-108636154D01*
X183866106Y-108206227D01*
X183305072Y-107973265D01*
X182697593Y-107972735D01*
X182136154Y-108204717D01*
X181706227Y-108633894D01*
X181473265Y-109194928D01*
X181472735Y-109802407D01*
X176834858Y-109802407D01*
X176886845Y-109677209D01*
X176887153Y-109324339D01*
X176752400Y-108998211D01*
X176503101Y-108748477D01*
X176177209Y-108613155D01*
X175824339Y-108612847D01*
X175498211Y-108747600D01*
X175248477Y-108996899D01*
X175113155Y-109322791D01*
X175112847Y-109675661D01*
X166486846Y-109675661D01*
X166487153Y-109324339D01*
X166352400Y-108998211D01*
X166103101Y-108748477D01*
X165777209Y-108613155D01*
X165424339Y-108612847D01*
X165098211Y-108747600D01*
X164848477Y-108996899D01*
X164713155Y-109322791D01*
X164712847Y-109675661D01*
X157145964Y-109675661D01*
X157186845Y-109577209D01*
X157187153Y-109224339D01*
X157052400Y-108898211D01*
X156803101Y-108648477D01*
X156477209Y-108513155D01*
X156124339Y-108512847D01*
X155798211Y-108647600D01*
X155587123Y-108858320D01*
X155587153Y-108824339D01*
X155452400Y-108498211D01*
X155203101Y-108248477D01*
X154877209Y-108113155D01*
X154524339Y-108112847D01*
X154198211Y-108247600D01*
X153948477Y-108496899D01*
X153813155Y-108822791D01*
X153812847Y-109175661D01*
X146382390Y-109175661D01*
X146550546Y-109063303D01*
X146851990Y-108612160D01*
X146957843Y-108080000D01*
X146851990Y-107547840D01*
X146550546Y-107096697D01*
X146121473Y-106810000D01*
X146550546Y-106523303D01*
X146582379Y-106475661D01*
X158112847Y-106475661D01*
X158247600Y-106801789D01*
X158496899Y-107051523D01*
X158822791Y-107186845D01*
X159175661Y-107187153D01*
X159501789Y-107052400D01*
X159751523Y-106803101D01*
X159886845Y-106477209D01*
X159887153Y-106124339D01*
X159754134Y-105802407D01*
X178222735Y-105802407D01*
X178454717Y-106363846D01*
X178883894Y-106793773D01*
X179444928Y-107026735D01*
X180052407Y-107027265D01*
X180613846Y-106795283D01*
X181043773Y-106366106D01*
X181276735Y-105805072D01*
X181277265Y-105197593D01*
X181045283Y-104636154D01*
X180616106Y-104206227D01*
X180055072Y-103973265D01*
X179447593Y-103972735D01*
X178886154Y-104204717D01*
X178456227Y-104633894D01*
X178223265Y-105194928D01*
X178222735Y-105802407D01*
X159754134Y-105802407D01*
X159752400Y-105798211D01*
X159503101Y-105548477D01*
X159177209Y-105413155D01*
X158824339Y-105412847D01*
X158498211Y-105547600D01*
X158248477Y-105796899D01*
X158113155Y-106122791D01*
X158112847Y-106475661D01*
X146582379Y-106475661D01*
X146851990Y-106072160D01*
X146957843Y-105540000D01*
X146851990Y-105007840D01*
X146830489Y-104975661D01*
X152112847Y-104975661D01*
X152247600Y-105301789D01*
X152496899Y-105551523D01*
X152822791Y-105686845D01*
X153175661Y-105687153D01*
X153501789Y-105552400D01*
X153751523Y-105303101D01*
X153886845Y-104977209D01*
X153887153Y-104624339D01*
X153752400Y-104298211D01*
X153503101Y-104048477D01*
X153327741Y-103975661D01*
X154112847Y-103975661D01*
X154247600Y-104301789D01*
X154496899Y-104551523D01*
X154822791Y-104686845D01*
X155175661Y-104687153D01*
X155501789Y-104552400D01*
X155751523Y-104303101D01*
X155886845Y-103977209D01*
X155886846Y-103975661D01*
X162112847Y-103975661D01*
X162247600Y-104301789D01*
X162496899Y-104551523D01*
X162822791Y-104686845D01*
X163175661Y-104687153D01*
X163501789Y-104552400D01*
X163751523Y-104303101D01*
X163886845Y-103977209D01*
X163887153Y-103624339D01*
X163752400Y-103298211D01*
X163503101Y-103048477D01*
X163177209Y-102913155D01*
X162824339Y-102912847D01*
X162498211Y-103047600D01*
X162248477Y-103296899D01*
X162113155Y-103622791D01*
X162112847Y-103975661D01*
X155886846Y-103975661D01*
X155887153Y-103624339D01*
X155752400Y-103298211D01*
X155503101Y-103048477D01*
X155177209Y-102913155D01*
X154824339Y-102912847D01*
X154498211Y-103047600D01*
X154248477Y-103296899D01*
X154113155Y-103622791D01*
X154112847Y-103975661D01*
X153327741Y-103975661D01*
X153177209Y-103913155D01*
X152824339Y-103912847D01*
X152498211Y-104047600D01*
X152248477Y-104296899D01*
X152113155Y-104622791D01*
X152112847Y-104975661D01*
X146830489Y-104975661D01*
X146550546Y-104556697D01*
X146121473Y-104270000D01*
X146550546Y-103983303D01*
X146851990Y-103532160D01*
X146957843Y-103000000D01*
X146893329Y-102675661D01*
X157112847Y-102675661D01*
X157247600Y-103001789D01*
X157496899Y-103251523D01*
X157822791Y-103386845D01*
X158175661Y-103387153D01*
X158501789Y-103252400D01*
X158751523Y-103003101D01*
X158886845Y-102677209D01*
X158887153Y-102324339D01*
X158752400Y-101998211D01*
X158503101Y-101748477D01*
X158177209Y-101613155D01*
X157824339Y-101612847D01*
X157498211Y-101747600D01*
X157248477Y-101996899D01*
X157113155Y-102322791D01*
X157112847Y-102675661D01*
X146893329Y-102675661D01*
X146851990Y-102467840D01*
X146550546Y-102016697D01*
X146099403Y-101715253D01*
X145567243Y-101609400D01*
X145512757Y-101609400D01*
X144980597Y-101715253D01*
X144529454Y-102016697D01*
X144400924Y-102209056D01*
X144400924Y-102136400D01*
X144364177Y-101941106D01*
X144248758Y-101761740D01*
X144072649Y-101641410D01*
X143863600Y-101599076D01*
X142136400Y-101599076D01*
X141941106Y-101635823D01*
X141761740Y-101751242D01*
X141641410Y-101927351D01*
X141599076Y-102136400D01*
X141599076Y-103863600D01*
X141635823Y-104058894D01*
X141751242Y-104238260D01*
X141927351Y-104358590D01*
X142136400Y-104400924D01*
X142222585Y-104400924D01*
X141989454Y-104556697D01*
X141688010Y-105007840D01*
X141582157Y-105540000D01*
X140602000Y-105540000D01*
X140602000Y-100602000D01*
X181281763Y-100602000D01*
X180782595Y-101100298D01*
M02*
