G04 #@! TF.FileFunction,Soldermask,Top*
%FSLAX46Y46*%
G04 Gerber Fmt 4.6, Leading zero omitted, Abs format (unit mm)*
G04 Created by KiCad (PCBNEW 4.0.4+e1-6308~48~ubuntu14.04.1-stable) date Wed Oct 26 00:23:15 2016*
%MOMM*%
%LPD*%
G01*
G04 APERTURE LIST*
%ADD10C,0.100000*%
%ADD11R,1.350000X1.100000*%
%ADD12R,1.100000X1.350000*%
%ADD13R,1.100000X1.700000*%
%ADD14R,2.900000X2.900000*%
%ADD15R,2.300000X2.900000*%
%ADD16R,2.100000X2.900000*%
%ADD17C,1.800000*%
%ADD18R,1.300000X2.600000*%
%ADD19C,2.100000*%
%ADD20C,3.100000*%
%ADD21R,1.400000X0.800000*%
%ADD22R,0.800000X1.400000*%
%ADD23R,1.160000X0.750000*%
%ADD24R,1.400000X0.350000*%
%ADD25R,0.350000X1.400000*%
%ADD26R,1.500000X1.900000*%
%ADD27R,1.827200X1.827200*%
%ADD28O,1.827200X1.827200*%
G04 APERTURE END LIST*
D10*
D11*
X144000000Y-136000000D03*
X144000000Y-134000000D03*
X151000000Y-134500000D03*
X151000000Y-132500000D03*
X156000000Y-132500000D03*
X156000000Y-134500000D03*
D12*
X165000000Y-133000000D03*
X167000000Y-133000000D03*
X151000000Y-116000000D03*
X153000000Y-116000000D03*
X165000000Y-105000000D03*
X163000000Y-105000000D03*
X171000000Y-112000000D03*
X169000000Y-112000000D03*
X153000000Y-106000000D03*
X151000000Y-106000000D03*
D13*
X164500000Y-143500000D03*
X167500000Y-143500000D03*
X167500000Y-146500000D03*
X164500000Y-146500000D03*
D12*
X159500000Y-122000000D03*
X157500000Y-122000000D03*
X159000000Y-107500000D03*
X161000000Y-107500000D03*
D13*
X158000000Y-143500000D03*
X161000000Y-143500000D03*
X161000000Y-146500000D03*
X158000000Y-146500000D03*
D12*
X175000000Y-133250000D03*
X173000000Y-133250000D03*
X175000000Y-125750000D03*
X173000000Y-125750000D03*
X173000000Y-130750000D03*
X175000000Y-130750000D03*
X175000000Y-128250000D03*
X173000000Y-128250000D03*
X171000000Y-115000000D03*
X169000000Y-115000000D03*
X171000000Y-109500000D03*
X169000000Y-109500000D03*
X145250000Y-122000000D03*
X143250000Y-122000000D03*
D11*
X153500000Y-134500000D03*
X153500000Y-132500000D03*
D12*
X143250000Y-119750000D03*
X145250000Y-119750000D03*
D14*
X172000000Y-144750000D03*
X176100000Y-140300000D03*
D15*
X185500000Y-140300000D03*
D16*
X188300000Y-140300000D03*
X186400000Y-147700000D03*
D15*
X183600000Y-147700000D03*
D17*
X184400000Y-144000000D03*
X177400000Y-144000000D03*
D18*
X148700000Y-130500000D03*
X146300000Y-130500000D03*
D19*
X183000000Y-128500000D03*
X178500000Y-132500000D03*
X179750000Y-124500000D03*
D20*
X182500000Y-135750000D03*
X182500000Y-121250000D03*
D19*
X183000000Y-109500000D03*
X178500000Y-113500000D03*
X179750000Y-105500000D03*
D20*
X182500000Y-116750000D03*
X182500000Y-102250000D03*
D21*
X151500000Y-139450000D03*
X151500000Y-137550000D03*
X149000000Y-137550000D03*
X149000000Y-139450000D03*
D22*
X165050000Y-135500000D03*
X166950000Y-135500000D03*
X155050000Y-107500000D03*
X156950000Y-107500000D03*
X152950000Y-121000000D03*
X151050000Y-121000000D03*
X160950000Y-105000000D03*
X159050000Y-105000000D03*
X156950000Y-102500000D03*
X155050000Y-102500000D03*
X156950000Y-105000000D03*
X155050000Y-105000000D03*
X163050000Y-107500000D03*
X164950000Y-107500000D03*
X166950000Y-140500000D03*
X165050000Y-140500000D03*
X160450000Y-140500000D03*
X158550000Y-140500000D03*
X173050000Y-135750000D03*
X174950000Y-135750000D03*
X174950000Y-123250000D03*
X173050000Y-123250000D03*
X174950000Y-117500000D03*
X173050000Y-117500000D03*
X173050000Y-109500000D03*
X174950000Y-109500000D03*
X174950000Y-115000000D03*
X173050000Y-115000000D03*
X174950000Y-112000000D03*
X173050000Y-112000000D03*
D23*
X146400000Y-133550000D03*
X146400000Y-134500000D03*
X146400000Y-135450000D03*
X148600000Y-135450000D03*
X148600000Y-133550000D03*
X148600000Y-134500000D03*
D24*
X155650000Y-111750000D03*
X155650000Y-112250000D03*
X155650000Y-112750000D03*
X155650000Y-113250000D03*
X155650000Y-113750000D03*
X155650000Y-114250000D03*
X155650000Y-114750000D03*
X155650000Y-115250000D03*
X155650000Y-115750000D03*
X155650000Y-116250000D03*
X155650000Y-116750000D03*
X155650000Y-117250000D03*
D25*
X157250000Y-118850000D03*
X157750000Y-118850000D03*
X158250000Y-118850000D03*
X158750000Y-118850000D03*
X159250000Y-118850000D03*
X159750000Y-118850000D03*
X160250000Y-118850000D03*
X160750000Y-118850000D03*
X161250000Y-118850000D03*
X161750000Y-118850000D03*
X162250000Y-118850000D03*
X162750000Y-118850000D03*
D24*
X164350000Y-117250000D03*
X164350000Y-116750000D03*
X164350000Y-116250000D03*
X164350000Y-115750000D03*
X164350000Y-115250000D03*
X164350000Y-114750000D03*
X164350000Y-114250000D03*
X164350000Y-113750000D03*
X164350000Y-113250000D03*
X164350000Y-112750000D03*
X164350000Y-112250000D03*
X164350000Y-111750000D03*
D25*
X162750000Y-110150000D03*
X162250000Y-110150000D03*
X161750000Y-110150000D03*
X161250000Y-110150000D03*
X160750000Y-110150000D03*
X160250000Y-110150000D03*
X159750000Y-110150000D03*
X159250000Y-110150000D03*
X158750000Y-110150000D03*
X158250000Y-110150000D03*
X157750000Y-110150000D03*
X157250000Y-110150000D03*
D26*
X153200000Y-113200000D03*
X150800000Y-113200000D03*
X153200000Y-108800000D03*
X150800000Y-108800000D03*
D27*
X143000000Y-103000000D03*
D28*
X145540000Y-103000000D03*
X143000000Y-105540000D03*
X145540000Y-105540000D03*
X143000000Y-108080000D03*
X145540000Y-108080000D03*
X143000000Y-110620000D03*
X145540000Y-110620000D03*
X143000000Y-113160000D03*
X145540000Y-113160000D03*
X143000000Y-115700000D03*
X145540000Y-115700000D03*
D12*
X169000000Y-117500000D03*
X171000000Y-117500000D03*
D22*
X174950000Y-120000000D03*
X173050000Y-120000000D03*
D12*
X153000000Y-118500000D03*
X151000000Y-118500000D03*
X169000000Y-120000000D03*
X171000000Y-120000000D03*
M02*
